<svg width="54" height="38" viewBox="0 0 54 38" fill="none" xmlns="http://www.w3.org/2000/svg">
<path fill-rule="evenodd" clip-rule="evenodd" d="M32.5805 0H12.8845V3.11157H21.0912V5.36745H12.8845L6.31915 10.2474V30.1433L12.8845 38H16.3822H34.2629L37.6687 36.522H44.0289L47.2295 31.5046V34.8106H52.3587L54 33.2549V13.1075L52.3587 11.435H47.2295V14.6633L44.0289 9.80026H37.6687L34.2629 5.36745H24.3739V3.11157H32.5805V0ZM3.28268 18.825H6.31915V21.9365H3.28268V31.738H0V9.02354H3.28268V18.825Z" fill="#FC4120"/>
<path d="M19.2768 30.029C18.1994 30.2042 17.1896 30.1458 16.2475 29.8539C15.3151 29.5603 14.5323 29.072 13.8991 28.3889C13.2756 27.7042 12.8772 26.8834 12.7041 25.9266C12.5309 24.9697 12.6179 24.07 12.965 23.2275C13.3218 22.3834 13.8881 21.6757 14.664 21.1044C15.4496 20.5315 16.3811 20.1575 17.4585 19.9823C18.5359 19.8071 19.5408 19.8662 20.4732 20.1598C21.4153 20.4517 22.1981 20.94 22.8217 21.6248C23.4549 22.3079 23.8581 23.1279 24.0312 24.0847C24.2044 25.0415 24.1126 25.942 23.7558 26.7861C23.4087 27.6287 22.8423 28.3364 22.0567 28.9093C21.2808 29.4806 20.3542 29.8538 19.2768 30.029ZM18.8672 27.7657C19.3816 27.6821 19.8267 27.4913 20.2024 27.1934C20.5782 26.8956 20.8499 26.5199 21.0176 26.0664C21.1837 25.6037 21.2176 25.101 21.1194 24.5582C21.0211 24.0154 20.8132 23.5567 20.4956 23.1821C20.1764 22.7984 19.7873 22.5254 19.3283 22.3633C18.8693 22.2011 18.3826 22.1619 17.8681 22.2455C17.3537 22.3292 16.9086 22.52 16.5329 22.8178C16.1571 23.1157 15.8862 23.496 15.7202 23.9586C15.5524 24.4121 15.5177 24.9103 15.6159 25.4531C15.7142 25.9959 15.9229 26.4592 16.2422 26.8429C16.5597 27.2175 16.948 27.4858 17.407 27.648C17.866 27.8101 18.3527 27.8494 18.8672 27.7657Z" fill="white"/>
<path d="M27.9318 20.6517L28.3165 22.777L32.8153 22.0455L33.1974 24.1569L28.6986 24.8885L29.298 28.2006L26.4153 28.6693L24.6669 19.009L32.66 17.7093L33.0422 19.8208L27.9318 20.6517Z" fill="white"/>
<path d="M37.2731 19.1328L37.6578 21.2581L42.1566 20.5265L42.5387 22.638L38.0399 23.3695L38.6393 26.6816L35.7566 27.1504L34.0082 17.4901L42.0013 16.1904L42.3835 18.3018L37.2731 19.1328Z" fill="white"/>
</svg>
