<svg width="48" height="55" viewBox="0 0 48 55" fill="none" xmlns="http://www.w3.org/2000/svg">
<rect x="2" y="16" width="3" height="6" rx="1.5" fill="#FC4120"/>
<path d="M46 0H24C22.8954 0 22 0.895431 22 2V25.8457C22 26.2738 22.1374 26.6906 22.3919 27.0348L29.9004 37.1891C30.2775 37.6991 30.8742 38 31.5085 38H38.9552C39.6098 38 40.2229 37.6797 40.5968 37.1425L47.6416 27.0198C47.8749 26.6845 48 26.2859 48 25.8774V2C48 0.895431 47.1046 0 46 0Z" fill="#FC4120"/>
<rect x="25" y="4" width="20" height="7" rx="1" fill="white"/>
<path fill-rule="evenodd" clip-rule="evenodd" d="M4.10185 22.1128C4.10192 24.6571 4.10211 30.9626 4.10182 40.2038C4.10169 44.3039 5.70205 46.5572 7.89466 47.6126C8.93723 48.1145 10.1423 48.3597 11.4222 48.3839C10.5439 47.2321 10.247 45.5654 10.322 43.8535C10.4256 41.4879 11.238 38.808 12.5119 36.6175C13.7749 34.4456 15.5645 32.6353 17.6886 32.2177C19.8789 31.7871 22.1754 32.8736 24.3243 35.931C24.9797 36.8006 25.5615 37.9207 26.0522 39.3112C26.8171 41.4791 26.5907 43.3652 25.7246 44.9218C24.8696 46.4583 23.4195 47.6251 21.8112 48.4451C20.1994 49.2669 18.3892 49.7612 16.754 49.9293C15.734 50.0341 14.7448 50.0156 13.9006 49.8484C15.2685 51.7478 17.7442 53.2568 21.8236 53.7827C24.004 54.0637 25.8588 53.796 27.425 53.0588C28.9913 52.3215 30.3071 51.0969 31.381 49.4026C33.5408 45.9951 34.6944 40.7301 34.8987 33.9395L36 33.973C35.7937 40.8309 34.6302 46.3378 32.3101 49.9982C31.144 51.8379 29.6791 53.2212 27.8921 54.0623C26.1051 54.9035 24.0338 55.1847 21.6835 54.8817C16.7183 54.2417 13.7781 52.1712 12.3759 49.4721C10.614 49.5738 8.89915 49.3246 7.41894 48.6121C4.7669 47.3354 2.99986 44.6375 3 40.2037C3.00029 30.9626 3.0001 24.6572 3.00003 22.1129C3.00001 21.5643 3 21.1906 3 21H4.10182C4.10182 21.1906 4.10183 21.5643 4.10185 22.1128ZM13.0512 48.3019C14.0327 48.1883 15.0352 47.962 16.0233 47.6371C18.8975 46.6923 21.539 44.9496 23.0516 42.917C23.805 41.9047 24.2632 40.8416 24.356 39.784C24.4477 38.739 24.1866 37.66 23.4361 36.5871C23.1059 36.151 22.7639 35.8005 22.4169 35.5257C21.4822 34.7853 20.4819 34.5686 19.4804 34.7302C17.425 35.062 15.2642 37.0185 13.8789 39.7005C12.5028 42.3646 11.9854 45.572 13.0264 48.2391C13.0345 48.2601 13.0428 48.281 13.0512 48.3019ZM20.148 33.5721C19.3499 33.2262 18.5947 33.1686 17.9 33.3052C16.2362 33.6323 14.6642 35.1113 13.463 37.1769C12.2725 39.2239 11.5179 41.7299 11.4227 43.9022C11.418 44.0101 11.4149 44.1167 11.4134 44.2218C11.5615 42.4655 12.1077 40.7256 12.9011 39.1897C14.3634 36.3588 16.759 34.0473 19.3058 33.6362C19.5864 33.5909 19.8676 33.5691 20.148 33.5721ZM25.3086 40.763C25.0696 41.7556 24.5857 42.7049 23.9338 43.5809C22.2543 45.8377 19.4002 47.6928 16.3656 48.6903C16.1572 48.7589 15.9474 48.8235 15.7366 48.8841C16.0256 48.878 16.3282 48.8592 16.642 48.827C18.1524 48.6717 19.8304 48.2127 21.3129 47.4569C22.7988 46.6993 24.0488 45.6643 24.7631 44.3807C25.3268 43.3676 25.5748 42.1689 25.3086 40.763Z" fill="#FC4120"/>
<rect x="29" y="26" width="12" height="1.5" rx="0.75" fill="white"/>
<rect x="31" y="29" width="8" height="1.5" rx="0.75" fill="white"/>
<rect x="25" y="14" width="6" height="2" rx="1" fill="white"/>
<rect x="32" y="14" width="6" height="2" rx="1" fill="white"/>
<rect x="39" y="14" width="6" height="2" rx="1" fill="white"/>
</svg>
