<svg width="54" height="43" viewBox="0 0 54 43" fill="none" xmlns="http://www.w3.org/2000/svg">
<path d="M34.29 19.7748L34.0199 19.7325L33.6 19.6598L33.114 19.5569L32.598 19.3936L32.184 19.1272L31.9379 18.7702L31.8 18.3525V16.4641L31.908 16.0343L32.1541 15.6773L32.5922 15.4291L33.1082 15.2657L33.5941 15.1629L33.9961 15.0963L34.2601 15.0419L34.4162 14.9692L34.4822 14.8421V14.6303L34.464 14.2849L34.3861 13.8613L34.2781 13.3589L34.1461 12.8201L33.9961 12.2876L33.84 11.7973L33.6961 11.3918L33.5701 11.0831L33.4682 10.9014L33.3482 10.8228H33.1803L32.9223 10.9136L32.5443 11.0589L32.0764 11.2163L31.5484 11.3313H31.0445L30.6545 11.1438L30.3484 10.8291L30.0965 10.4417L29.856 10.0479L29.6099 9.63627L29.4 9.2428L29.2801 8.81307L29.316 8.37724L29.574 7.9414L29.94 7.53591L30.306 7.20292L30.6179 6.94875L30.8218 6.77319L30.9179 6.63389V6.49459L30.8099 6.31293L30.6 6.04083L30.324 5.70784L30 5.33269L29.616 4.93311L29.2199 4.54574L28.842 4.20074L28.5119 3.92234L28.2478 3.72255L28.0678 3.61359H27.9297L27.7916 3.71053L27.6176 3.91623L27.3656 4.23089L27.0355 4.60013L26.6336 4.96937L26.2015 5.22965L25.8 5.2661L25.374 5.14512L24.96 4.93942L24.5519 4.69116L24.1379 4.45512L23.7539 4.20094L23.4 3.89219L23.2141 3.49872V2.99038L23.3281 2.45778L23.4842 1.98569L23.6281 1.60444L23.7182 1.34415V1.1747L23.6402 1.05373L23.4601 0.950876L23.1541 0.823792L22.8 0.67799L22.3141 0.52056L21.7801 0.363328L21.2461 0.230136L20.748 0.121175L20.3281 0.0425589L20.0041 0.000197032H19.8L19.674 0.0667931L19.6019 0.224223L19.5539 0.490607L19.4879 0.896101L19.3859 1.38632L19.224 1.90686L18.9779 2.3488L18.624 2.59707L18.198 2.70603H17.7361L16.8 2.70583H16.3381L15.9121 2.59687L15.5582 2.34861L15.3121 1.90667L15.1502 1.38612L15 0.895904L14.934 0.49041L14.8859 0.224026L14.8138 0.0665961L14.6879 0H14.4779L14.1539 0.0423619L13.734 0.120978L13.2359 0.229939L12.7019 0.363131L12.174 0.514452L11.688 0.671881L11.2861 0.817093L10.98 0.944177L10.8 1.04703L10.722 1.16801V1.33746L10.8121 1.59774L10.956 1.97899L11.1121 2.45108L11.2261 2.98368V3.49202L11.0402 3.88549L10.7283 4.19424L10.3443 4.44842L9.93023 4.68446L9.52222 4.93272L9.10816 5.13842L8.68218 5.2594L8.298 5.20561L7.86598 4.94533L7.46402 4.60033L7.13394 4.23109L6.88199 3.91643L6.70797 3.71073L6.56988 3.61379H6.4318L6.25172 3.72275L5.98766 3.92254L5.65758 4.20094L5.27965 4.54594L4.88356 4.93331L4.49957 5.33289L4.15758 5.71415L3.88161 6.04713L3.68357 6.31352L3.57556 6.49519V6.63449L3.67165 6.77379L3.87555 6.94934L4.18747 7.20352L4.55348 7.5365L4.9195 7.942L5.17751 8.37783L5.21344 8.81367L5.09352 9.24339L4.88962 9.6611L4.64352 10.0727L4.40954 10.4904L4.15759 10.8778L3.85153 11.1924L3.46149 11.38L2.958 11.3794L2.4 11.2584L1.93203 11.101L1.5541 10.9558L1.29609 10.865H1.12812L1.0082 10.9436L0.906247 11.1252L0.780272 11.434L0.636328 11.8395L0.480273 12.3297L0.330274 12.8623L0.198244 13.401L0.0902345 13.9034L0.0123048 14.3271L3.81468e-07 14.636V14.8478L0.066015 14.9749L0.22207 15.0476L0.486129 15.102L0.888082 15.1686L1.37402 15.2714L1.89002 15.4348L2.3281 15.683L2.5742 16.0401L2.68221 16.4698V16.9358L2.68201 17.9166V18.3826L2.574 18.8123L2.32205 19.1271L1.88396 19.3754L1.36797 19.5387L0.882027 19.6416L0.480074 19.7324L0.216014 19.7868L0.0599598 19.8595L0 19.9685V20.1803L0.0419919 20.5072L0.119922 20.9308L0.227931 21.4332L0.359961 21.9719L0.50996 22.5045L0.666015 22.9947L0.809959 23.4002L0.935934 23.709L1.03789 23.8906L1.15781 23.9692H1.32578L1.58379 23.8784L1.96172 23.7332L2.39999 23.564L2.92794 23.4489H3.43184L3.82188 23.6365L4.12793 23.9511L4.37989 24.3385L4.61387 24.7562L4.85997 25.1678L5.06387 25.5855L5.18379 26.0152L5.14785 26.4511L4.88984 26.8869L4.52383 27.2924L4.2 27.6011L3.88809 27.8553L3.68418 28.0309L3.6 28.2064V28.3457L3.70801 28.5274L3.90606 28.7938L4.18203 29.1268L4.52402 29.508L4.908 29.9076L5.3041 30.295L5.68203 30.64L6.0121 30.9184L6.27616 31.1182L6.45624 31.2271H6.59433L6.73241 31.1302L6.90644 30.9245L7.15839 30.6098L7.48847 30.2406L7.89042 29.8714L8.32245 29.6111L8.75448 29.5748L9.18045 29.6958L9.59451 29.9015L10.0025 30.1498L10.4166 30.3858L10.8 30.6276L11.1119 30.9363L11.2978 31.3298L11.298 31.8381L11.184 32.3707L11.0279 32.8428L10.884 33.2241L10.7939 33.4843V33.6538L10.8719 33.7748L11.0519 33.8776L11.358 34.0047L11.7599 34.1499L12.2459 34.3073L12.7738 34.4587L13.3078 34.5919L13.8059 34.7008L14.2258 34.7794L14.5498 34.8218H14.7598L14.8858 34.7552L14.9578 34.5978L15.0059 34.3314L15.0719 33.9259L15.1738 33.4357L15.3358 32.9151L15.5818 32.4732L15.9358 32.2249L16.3617 32.116H18.2395L18.6654 32.2249L19.0193 32.4732L19.2654 32.9151L19.4274 33.4357L19.5293 33.9259L19.5953 34.3314L19.6434 34.5978L19.7154 34.7552L19.8414 34.8218H20.0514L20.3754 34.7794L20.7953 34.7008L21.2934 34.5919L21.8274 34.4587L22.3553 34.3073L22.8412 34.1499L23.2432 34.0047L23.5493 33.8776L23.7293 33.7748L23.8073 33.6538V33.4843L23.7172 33.2241L23.5733 32.8428L23.4172 32.3707L23.2381 31.8381V31.3298L23.4241 30.9363L23.736 30.6276L24.12 30.3734L24.534 30.1373L24.942 29.8891L25.3561 29.6834L25.7821 29.5624L26.2141 29.5987L26.6461 29.8589L27.0481 30.2282L27.3781 30.5974L27.6301 30.9121L27.8041 31.1178L27.9422 31.2147H28.0803L28.2604 31.1058L28.5244 30.906L28.8545 30.6276L29.2324 30.2826L29.6285 29.8952L30.0125 29.4956L30.3545 29.1144L30.6305 28.7814L30.8285 28.515L30.9365 28.3333L30.936 28.2064L30.8399 28.0671L30.6 27.8734L30.318 27.6012L29.952 27.2682L29.586 26.8627L29.3279 26.4268L29.292 25.991L29.4119 25.5613L29.6158 25.1436L29.8619 24.732L30.0959 24.3143L30.3479 23.9269L30.6539 23.6122L31.044 23.4247H31.5479L32.0758 23.5397L32.5438 23.6972L32.9217 23.8424L33.1797 23.9332H33.3477L33.4676 23.8546L33.5696 23.6729L33.6955 23.3642L33.8395 22.9587L33.9955 22.4685L34.1455 21.9359L34.2776 21.3972L34.3856 20.8947L34.4635 20.4711L34.5055 20.1442V19.9324L34.4395 19.8053L34.29 19.7748ZM17.2501 24.4658C15.3946 24.4658 13.6151 23.7222 12.3032 22.3987C10.9911 21.0751 10.254 19.2799 10.254 17.4083C10.254 15.5365 10.9911 13.7413 12.3032 12.4177C13.6151 11.0942 15.3946 10.3506 17.2501 10.3506C19.1056 10.3506 20.885 11.0942 22.197 12.4177C23.5091 13.7413 24.2461 15.5365 24.2461 17.4083C24.2461 19.2799 23.5091 21.075 22.197 22.3987C20.8851 23.7222 19.1056 24.4658 17.2501 24.4658ZM53.652 20.4164L53.31 20.1076L52.9379 19.8353L52.6139 19.6235L52.4219 19.4964L52.3199 19.3995L52.2719 19.2785V15.5255L52.3199 15.4045L52.4219 15.3075L52.6139 15.1805L52.9379 14.9687L53.31 14.6964L53.652 14.3876L53.9039 14.0546L54 13.7096V13.3526L53.8801 12.9834L53.7121 12.608L53.5262 12.2388L53.3162 11.918L53.0582 11.6759L52.7342 11.5366H52.3201L51.8701 11.6152L51.4262 11.7423L51.0602 11.8632L50.8442 11.9359H50.7061L50.5862 11.8997L50.4 11.8215L50.1539 11.6097L49.8479 11.3312L49.5119 11.0225L49.1459 10.7137L48.768 10.4231L48.3959 10.1567L48.06 9.92069L47.7959 9.72701L47.652 9.59382L47.592 9.47876V9.10952L47.628 8.72215V7.80202L47.526 7.39653L47.3221 7.10591L47.0281 6.90612L46.6682 6.76682L46.2721 6.66988L45.876 6.58515L45.492 6.5489L45.144 6.60328L44.8321 6.77273L44.568 7.0935L44.3459 7.49899L44.1659 7.92872L44.0338 8.29185L43.9559 8.50976L43.8838 8.63074L43.7819 8.70344L43.5959 8.75782L43.278 8.81831L42.8699 8.88491L42.42 8.96352L41.952 9.05436L41.4901 9.17533L41.052 9.30241L40.6559 9.41748L40.344 9.5022L40.152 9.53255H40.026L39.912 9.4427L39.744 9.27936L39.468 9.00706L39.126 8.69832L38.754 8.43193L38.4001 8.23214H38.0461L37.7102 8.3411L37.3801 8.54089L37.0561 8.78915L36.7442 9.04943L36.4801 9.32784L36.3001 9.63659L36.2401 9.9877L36.3241 10.3932L36.4981 10.8229L36.7202 11.2284L36.9182 11.5614L37.0381 11.7612L37.092 11.8944V12.0215L37.02 12.2031L36.87 12.4938L36.6661 12.8569L36.444 13.2565L36.228 13.6862L36.036 14.122L35.862 14.5456L35.7059 14.933L35.5799 15.2356L35.4838 15.4051L35.3878 15.4898L35.2557 15.5322H35.0278L34.6438 15.5807L34.1938 15.6593L33.7499 15.7864L33.3839 15.9739L33.1499 16.2403L33.0239 16.5733L32.97 16.9607V17.7838L33.0239 18.1712L33.1499 18.5042L33.3839 18.7706L33.7499 18.9582L34.1938 19.0852L34.6438 19.1639L35.0278 19.2123H35.2557L35.3878 19.2547L35.4838 19.3394L35.5799 19.5089L35.7059 19.8115L35.862 20.1989L36.036 20.6225L36.228 21.0583L36.444 21.4881L36.6661 21.8876L36.87 22.2508L37.02 22.5414L37.092 22.7231V22.8501L37.0381 22.9833L36.9182 23.1831L36.7202 23.5161L36.4981 23.9216L36.3241 24.3513L36.2401 24.7568L36.3001 25.1079L36.4801 25.4167L36.7442 25.6951L37.0561 25.9554L37.3801 26.2036L37.7102 26.4034L38.0461 26.5124H38.4001L38.778 26.3429L39.1501 26.0765L39.492 25.7678L39.768 25.4955L39.936 25.3322L40.05 25.2535H40.176L40.368 25.2839L40.6799 25.3686L41.076 25.4837L41.5141 25.6108L41.976 25.7317L42.444 25.8226L42.894 25.9012L43.302 25.9678L43.62 26.0283L43.8059 26.0826L43.9078 26.1553L43.9799 26.2763L44.0578 26.4942L44.1899 26.8574L44.37 27.2871L44.592 27.6926L44.8561 28.0134L45.168 28.1828L45.516 28.2372L45.9 28.2009L46.2961 28.1162L46.6922 28.0193L47.0522 27.88L47.3461 27.6802L47.55 27.3896L47.652 26.9841V26.0639L47.616 25.6766V25.3073L47.676 25.1923L47.8199 25.0591L48.084 24.8654L48.4199 24.6293L48.792 24.363L49.1699 24.0723L49.536 23.7636L49.8719 23.4548L50.1779 23.1764L50.4 23.0011L50.5561 22.886L50.676 22.8498H50.8141L51.0301 22.9225L51.3961 23.0434L51.84 23.1705L52.29 23.2491H52.7041L53.0281 23.1098L53.2861 22.8677L53.4961 22.5469L53.682 22.1777L53.85 21.8023L53.9699 21.4331V21.0761L53.8738 20.7311L53.652 20.4164ZM43.92 22.2687C42.7044 22.2687 41.5383 21.7814 40.6788 20.9141C39.819 20.047 39.3361 18.8707 39.3361 17.6444C39.3361 16.4179 39.8191 15.2416 40.6788 14.3744C41.5383 13.5071 42.7044 13.02 43.92 13.02C45.1358 13.02 46.3018 13.5071 47.1614 14.3744C48.0211 15.2416 48.504 16.4179 48.504 17.6444C48.504 18.8707 48.0212 20.047 47.1614 20.9141C46.3018 21.7814 45.1358 22.2687 43.92 22.2687ZM48.0001 33.3151L47.91 32.8369L47.778 32.3286L47.6221 31.8382L47.4362 31.3842L47.2442 31.0211L47.0462 30.7728L46.86 30.6276H46.668L46.47 30.6881L46.272 30.7909L46.0739 30.8999L45.87 30.9846L45.6479 31.0209L45.4018 30.9724L45.1378 30.7968L44.8618 30.5366L44.5737 30.24L44.2737 29.9313L43.9558 29.6468L43.6438 29.3745L43.3739 29.1081L43.2001 28.8661L43.1401 28.624V28.394L43.2001 28.2065L43.2962 28.0067L43.3862 27.801L43.4401 27.6012V27.4075L43.3142 27.2199L43.0562 27.0383L42.6841 26.8627L42.228 26.6994L41.7241 26.5601L41.2142 26.4511L40.7402 26.3906H40.0201L39.822 26.4996L39.714 26.6629L39.672 26.8686V27.5407L39.5941 27.7586L39.4322 27.9462L39.1501 28.0855L38.7902 28.1944L38.3941 28.2973L37.98 28.4062L37.572 28.5394L37.182 28.6726L36.822 28.7816L36.5101 28.8178L36.2701 28.7512L36.09 28.6119L35.946 28.4425L35.8201 28.2549L35.688 28.0733L35.538 27.928L35.358 27.8494H35.1359L34.8478 27.9826L34.5119 28.2187L34.1459 28.5394L33.7738 28.9087L33.4257 29.3021L33.1318 29.6895L32.9158 30.0406L32.7959 30.3372V30.5612L32.8859 30.7367L33.042 30.876L33.2279 30.997L33.4199 31.1121L33.5939 31.2453L33.7379 31.4208L33.8158 31.6569V31.9715L33.7318 32.3408L33.6177 32.7404L33.5037 33.1581L33.4197 33.5817L33.3418 33.9872L33.2517 34.3564L33.1258 34.647L32.9457 34.8226L32.7357 34.9134L32.5197 34.9497H32.0756L31.8775 35.0041L31.7215 35.1191L31.6195 35.3248V35.6395L31.6555 36.0511L31.7455 36.5293L31.8775 37.0376L32.0394 37.54L32.2254 37.994L32.4174 38.3571L32.6154 38.6054L32.8074 38.7205H32.9994L33.1974 38.66L33.3955 38.5571L33.5935 38.4482L33.7974 38.3634L34.0195 38.3272L34.2656 38.3757L34.5296 38.5512L34.8056 38.8115L35.0937 39.108L35.3937 39.4168L35.7117 39.7013L36.0236 39.9736L36.2935 40.24L36.4855 40.4941L36.5455 40.7363V40.9662L36.4675 41.178L36.3714 41.3778L36.2814 41.5835L36.2275 41.7833V41.977L36.3535 42.1646L36.6115 42.3462L36.9835 42.5218L37.4396 42.6851L37.9435 42.8244L38.4534 42.9334L38.9335 43H39.3415L39.6534 42.9576L39.8515 42.8487L39.9595 42.6853L40.0015 42.4796V42.2556L40.0021 42.1279V41.9039L40.08 41.686L40.2001 41.5227L40.4821 41.3834L40.8421 41.2744L41.2382 41.1715L41.6523 41.0626L42.0603 40.9294L42.4503 40.7962L42.8163 40.6872L43.1282 40.651L43.3683 40.7176L43.5484 40.8569L43.6923 41.0263L43.8183 41.2139L43.9503 41.3956L44.1003 41.5408L44.2804 41.6194H44.5024L44.7905 41.4862L45.1265 41.2502L45.4925 40.9294L45.8646 40.5602L46.2126 40.1667L46.5065 39.7793L46.7226 39.4282L46.8001 39.1015V38.8594L46.7101 38.6838L46.554 38.5445L46.3681 38.4235L46.2001 38.3087L46.0261 38.1755L45.8821 37.9999L45.8042 37.7639V37.4492L45.8882 37.08L46.02 36.6804L46.1341 36.2627L46.2181 35.8391L46.296 35.4336L46.386 35.0643L46.512 34.7737L46.6921 34.5982L46.902 34.5073L47.1181 34.465H47.5622L47.7602 34.4106L47.9163 34.2955L48.0182 34.0898V33.7752L48.0001 33.3151ZM39.7861 39.1016C38.6342 39.1016 37.5291 38.64 36.7144 37.8182C35.8998 36.9963 35.4422 35.8815 35.4422 34.7194C35.4422 33.5571 35.8998 32.4425 36.7144 31.6207C37.5291 30.7988 38.6342 30.337 39.7861 30.337C40.9382 30.337 42.0431 30.7989 42.8578 31.6207C43.6724 32.4425 44.1302 33.5571 44.1302 34.7194C44.1302 35.8815 43.6724 36.9963 42.8578 37.8182C42.0431 38.64 40.9382 39.1016 39.7861 39.1016Z" fill="#FC4D2E"/>
</svg>
