<svg width="305" height="240" viewBox="0 0 305 240" fill="none" xmlns="http://www.w3.org/2000/svg">
<path d="M176.573 98.1861C189.646 106.547 202.24 108.914 207.402 103.113C213.948 95.7586 206.065 78.0583 189.795 63.5786C173.526 49.0988 155.031 43.3229 148.485 50.6777C144.541 55.1092 145.835 63.2965 151.046 72.2722" stroke="#FC4120" stroke-width="4" stroke-linecap="round"/>
<path d="M66.1934 157.496L52.9952 149.739L1.14995 230.12C-0.383026 232.578 14.7006 241.444 16.2335 238.986L66.1934 157.496Z" fill="#FC4120"/>
<path d="M57.9846 149.048L49.4026 162.81L54.3166 165.698C60.5932 156.402 63.8888 148.041 72.5648 141.051C79.9819 135.076 145.918 95.2121 176.754 77.8141L174.458 73.9534C137.573 93.5571 78.3321 130.017 67.3237 138.058C63.1642 141.097 59.1232 147.479 57.9846 149.048Z" fill="#FC4120"/>
<mask id="path-4-inside-1_501_1307" fill="white">
<path fill-rule="evenodd" clip-rule="evenodd" d="M42.1084 23.727C41.5407 22.3033 41.2402 20.8181 41.2402 19.2911C41.2402 8.71774 55.6469 0.146362 73.4185 0.146362C91.1901 0.146362 105.597 8.71774 105.597 19.2911C105.597 19.5332 105.589 19.7742 105.574 20.0141C114.899 21.0229 122.056 26.9259 122.056 34.0571C122.056 41.8968 113.406 48.2522 102.735 48.2522C101.672 48.2522 100.629 48.1891 99.6125 48.0677C97.5952 56.2345 87.4032 62.4471 75.1336 62.4471C65.0345 62.4471 56.3429 58.238 52.459 52.1947C52.3941 52.195 52.3292 52.1952 52.2642 52.1952C39.4157 52.1952 29 45.4867 29 37.2114C29 31.2813 34.3487 26.1558 42.1084 23.727ZM122.846 58.8982C122.846 61.2937 120.375 63.2356 117.326 63.2356C114.277 63.2356 111.806 61.2937 111.806 58.8982C111.806 56.5027 114.277 54.5608 117.326 54.5608C120.375 54.5608 122.846 56.5027 122.846 58.8982ZM133.098 69.7602C133.098 71.2846 131.509 72.5203 129.549 72.5203C127.589 72.5203 126 71.2846 126 69.7602C126 68.2358 127.589 67 129.549 67C131.509 67 133.098 68.2358 133.098 69.7602Z"/>
</mask>
<path fill-rule="evenodd" clip-rule="evenodd" d="M42.1084 23.727C41.5407 22.3033 41.2402 20.8181 41.2402 19.2911C41.2402 8.71774 55.6469 0.146362 73.4185 0.146362C91.1901 0.146362 105.597 8.71774 105.597 19.2911C105.597 19.5332 105.589 19.7742 105.574 20.0141C114.899 21.0229 122.056 26.9259 122.056 34.0571C122.056 41.8968 113.406 48.2522 102.735 48.2522C101.672 48.2522 100.629 48.1891 99.6125 48.0677C97.5952 56.2345 87.4032 62.4471 75.1336 62.4471C65.0345 62.4471 56.3429 58.238 52.459 52.1947C52.3941 52.195 52.3292 52.1952 52.2642 52.1952C39.4157 52.1952 29 45.4867 29 37.2114C29 31.2813 34.3487 26.1558 42.1084 23.727ZM122.846 58.8982C122.846 61.2937 120.375 63.2356 117.326 63.2356C114.277 63.2356 111.806 61.2937 111.806 58.8982C111.806 56.5027 114.277 54.5608 117.326 54.5608C120.375 54.5608 122.846 56.5027 122.846 58.8982ZM133.098 69.7602C133.098 71.2846 131.509 72.5203 129.549 72.5203C127.589 72.5203 126 71.2846 126 69.7602C126 68.2358 127.589 67 129.549 67C131.509 67 133.098 68.2358 133.098 69.7602Z" fill="#FC4120"/>
<path d="M42.1084 23.727L43.3033 27.5444L47.4227 26.255L45.8239 22.2454L42.1084 23.727ZM105.574 20.0141L101.582 19.765L101.344 23.5798L105.144 23.9909L105.574 20.0141ZM99.6125 48.0677L100.087 44.0959L96.5768 43.6769L95.7292 47.1085L99.6125 48.0677ZM52.459 52.1947L55.824 50.0321L54.6357 48.1831L52.4378 48.1947L52.459 52.1947ZM45.8239 22.2454C45.4337 21.2668 45.2402 20.283 45.2402 19.2911L37.2402 19.2911C37.2402 21.3531 37.6478 23.3399 38.3929 25.2086L45.8239 22.2454ZM45.2402 19.2911C45.2402 15.9782 47.5205 12.279 52.7103 9.19131C57.8151 6.15418 65.1272 4.14636 73.4185 4.14636V-3.85364C63.9383 -3.85364 55.1613 -1.57576 48.6198 2.31612C42.1633 6.15746 37.2402 12.0306 37.2402 19.2911L45.2402 19.2911ZM73.4185 4.14636C81.7099 4.14636 89.022 6.15418 94.1268 9.19131C99.3165 12.279 101.597 15.9782 101.597 19.2911H109.597C109.597 12.0306 104.674 6.15746 98.2172 2.31612C91.6758 -1.57576 82.8987 -3.85364 73.4185 -3.85364V4.14636ZM101.597 19.2911C101.597 19.4499 101.592 19.6079 101.582 19.765L109.566 20.2632C109.587 19.9405 109.597 19.6164 109.597 19.2911H101.597ZM105.144 23.9909C113.497 24.8946 118.056 29.8811 118.056 34.0571H126.056C126.056 23.9708 116.301 17.1513 106.005 16.0373L105.144 23.9909ZM118.056 34.0571C118.056 36.3998 116.772 38.8555 114.029 40.871C111.288 42.885 107.308 44.2522 102.735 44.2522V52.2522C108.833 52.2522 114.514 50.4417 118.766 47.3181C123.015 44.1959 126.056 39.5541 126.056 34.0571H118.056ZM102.735 44.2522C101.83 44.2522 100.945 44.1985 100.087 44.0959L99.1383 52.0395C100.312 52.1797 101.514 52.2522 102.735 52.2522V44.2522ZM95.7292 47.1085C95.0453 49.8772 92.8641 52.6898 89.175 54.8808C85.5149 57.0547 80.617 58.4471 75.1336 58.4471V66.4471C81.9198 66.4471 88.2527 64.7332 93.2602 61.7591C98.2389 58.8022 102.162 54.4251 103.496 49.027L95.7292 47.1085ZM75.1336 58.4471C65.9585 58.4471 58.7632 54.6055 55.824 50.0321L49.094 54.3572C53.9225 61.8705 64.1104 66.4471 75.1336 66.4471V58.4471ZM52.2642 56.1952C52.3362 56.1952 52.4082 56.195 52.4801 56.1946L52.4378 48.1947C52.38 48.195 52.3222 48.1952 52.2642 48.1952V56.1952ZM25 37.2114C25 43.1679 28.7433 48.0104 33.648 51.1694C38.5947 54.3554 45.1876 56.1952 52.2642 56.1952V48.1952C46.4924 48.1952 41.4532 46.6807 37.9798 44.4437C34.4646 42.1796 33 39.5302 33 37.2114H25ZM40.9136 19.9096C32.5068 22.541 25 28.6573 25 37.2114H33C33 33.9053 36.1906 29.7707 43.3033 27.5444L40.9136 19.9096ZM117.326 67.2356C121.632 67.2356 126.846 64.3477 126.846 58.8982H118.846C118.846 58.6334 118.993 58.6352 118.758 58.8199C118.517 59.0095 118.024 59.2356 117.326 59.2356V67.2356ZM107.806 58.8982C107.806 64.3477 113.02 67.2356 117.326 67.2356V59.2356C116.628 59.2356 116.135 59.0095 115.894 58.8199C115.659 58.6352 115.806 58.6334 115.806 58.8982H107.806ZM117.326 50.5608C113.02 50.5608 107.806 53.4486 107.806 58.8982H115.806C115.806 59.163 115.659 59.1612 115.894 58.9765C116.135 58.7868 116.628 58.5608 117.326 58.5608L117.326 50.5608ZM126.846 58.8982C126.846 53.4486 121.632 50.5608 117.326 50.5608L117.326 58.5608C118.024 58.5608 118.517 58.7868 118.758 58.9765C118.993 59.1612 118.846 59.163 118.846 58.8982H126.846ZM129.549 76.5203C132.724 76.5203 137.098 74.371 137.098 69.7602H129.098C129.098 69.0429 129.482 68.6484 129.602 68.5545C129.718 68.4647 129.712 68.5203 129.549 68.5203V76.5203ZM122 69.7602C122 74.371 126.373 76.5203 129.549 76.5203V68.5203C129.385 68.5203 129.38 68.4647 129.495 68.5545C129.616 68.6484 130 69.0429 130 69.7602H122ZM129.549 63C126.373 63 122 65.1493 122 69.7602H130C130 70.4774 129.616 70.8719 129.495 70.9658C129.38 71.0556 129.385 71 129.549 71V63ZM137.098 69.7602C137.098 65.1493 132.724 63 129.549 63V71C129.712 71 129.718 71.0556 129.602 70.9658C129.482 70.8719 129.098 70.4774 129.098 69.7602H137.098Z" fill="#FC4120" mask="url(#path-4-inside-1_501_1307)"/>
<path d="M234.201 25.2183L153.252 47.8581C159.501 47.9054 174.8 50.6001 186 61.0001C200 74.0001 211.936 94.8558 207.218 102.928L253.825 81.512C278.968 71.1099 257.505 18.4876 234.201 25.2183Z" fill="#FC4120" stroke="#FC4120" stroke-width="4"/>
<circle cx="265.494" cy="92.4938" r="37.4937" fill="white" stroke="#FC4120" stroke-width="4"/>
<path d="M281.118 76.8699L249.87 108.118M249.87 76.8699L281.118 108.118" stroke="#FC4120" stroke-width="4" stroke-linecap="round" stroke-linejoin="round"/>
</svg>
