<svg width="305" height="240" viewBox="0 0 305 240" fill="none" xmlns="http://www.w3.org/2000/svg">
<path d="M177.65 96.5013C176.72 95.9061 175.483 96.178 174.888 97.1085C174.293 98.0391 174.565 99.2759 175.495 99.871L177.65 96.5013ZM149.316 73.2764C149.871 74.2316 151.095 74.5565 152.05 74.0019C153.005 73.4473 153.33 72.2234 152.775 71.2681L149.316 73.2764ZM149.979 52.0074C152.406 49.2804 157.557 48.557 164.898 50.8493C172.045 53.0812 180.493 57.9769 188.466 65.0726L191.125 62.0846C182.828 54.7005 173.894 49.4684 166.09 47.0311C158.479 44.6542 151.11 44.7202 146.991 49.3481L149.979 52.0074ZM188.466 65.0726C196.438 72.1682 202.281 79.9917 205.327 86.8315C208.456 93.8562 208.335 99.0568 205.908 101.784L208.896 104.443C213.015 99.8152 212.225 92.4883 208.981 85.2042C205.655 77.7352 199.422 69.4687 191.125 62.0846L188.466 65.0726ZM205.908 101.784C204.004 103.923 200.443 104.854 195.285 103.988C190.201 103.134 184.037 100.586 177.65 96.5013L175.495 99.871C182.181 104.147 188.852 106.963 194.623 107.933C200.321 108.89 205.637 108.104 208.896 104.443L205.908 101.784ZM152.775 71.2681C150.254 66.9243 148.753 62.8902 148.316 59.5141C147.878 56.136 148.524 53.6426 149.979 52.0074L146.991 49.3481C144.502 52.1442 143.822 55.9603 144.349 60.0276C144.876 64.097 146.627 68.6444 149.316 73.2764L152.775 71.2681Z" fill="#4DB45E"/>
<path d="M66.1934 157.496L52.9952 149.739L1.14995 230.12C-0.383026 232.578 14.7006 241.444 16.2335 238.986L66.1934 157.496Z" fill="#4DB45E"/>
<path d="M57.9846 149.048L49.4026 162.81L54.3166 165.698C60.5932 156.402 63.8888 148.041 72.5648 141.051C79.9819 135.076 145.918 95.2121 176.754 77.8141L174.458 73.9534C137.573 93.5571 78.3321 130.017 67.3237 138.058C63.1642 141.097 59.1232 147.479 57.9846 149.048Z" fill="#4DB45E"/>
<mask id="path-4-inside-1_501_1314" fill="white">
<path fill-rule="evenodd" clip-rule="evenodd" d="M42.1084 23.7271C41.5407 22.3034 41.2402 20.8182 41.2402 19.2912C41.2402 8.71786 55.6469 0.146484 73.4185 0.146484C91.1901 0.146484 105.597 8.71786 105.597 19.2912C105.597 19.5333 105.589 19.7743 105.574 20.0142C114.899 21.0231 122.056 26.926 122.056 34.0572C122.056 41.8969 113.406 48.2523 102.735 48.2523C101.672 48.2523 100.629 48.1892 99.6125 48.0679C97.5952 56.2347 87.4032 62.4472 75.1336 62.4472C65.0345 62.4472 56.3429 58.2382 52.459 52.1948C52.3941 52.1951 52.3292 52.1953 52.2642 52.1953C39.4157 52.1953 29 45.4869 29 37.2116C29 31.2815 34.3487 26.156 42.1084 23.7271ZM122.846 58.8983C122.846 61.2938 120.375 63.2357 117.326 63.2357C114.277 63.2357 111.806 61.2938 111.806 58.8983C111.806 56.5028 114.277 54.5609 117.326 54.5609C120.375 54.5609 122.846 56.5028 122.846 58.8983ZM133.098 69.7603C133.098 71.2847 131.509 72.5204 129.549 72.5204C127.589 72.5204 126 71.2847 126 69.7603C126 68.2359 127.589 67.0001 129.549 67.0001C131.509 67.0001 133.098 68.2359 133.098 69.7603Z"/>
</mask>
<path fill-rule="evenodd" clip-rule="evenodd" d="M42.1084 23.7271C41.5407 22.3034 41.2402 20.8182 41.2402 19.2912C41.2402 8.71786 55.6469 0.146484 73.4185 0.146484C91.1901 0.146484 105.597 8.71786 105.597 19.2912C105.597 19.5333 105.589 19.7743 105.574 20.0142C114.899 21.0231 122.056 26.926 122.056 34.0572C122.056 41.8969 113.406 48.2523 102.735 48.2523C101.672 48.2523 100.629 48.1892 99.6125 48.0679C97.5952 56.2347 87.4032 62.4472 75.1336 62.4472C65.0345 62.4472 56.3429 58.2382 52.459 52.1948C52.3941 52.1951 52.3292 52.1953 52.2642 52.1953C39.4157 52.1953 29 45.4869 29 37.2116C29 31.2815 34.3487 26.156 42.1084 23.7271ZM122.846 58.8983C122.846 61.2938 120.375 63.2357 117.326 63.2357C114.277 63.2357 111.806 61.2938 111.806 58.8983C111.806 56.5028 114.277 54.5609 117.326 54.5609C120.375 54.5609 122.846 56.5028 122.846 58.8983ZM133.098 69.7603C133.098 71.2847 131.509 72.5204 129.549 72.5204C127.589 72.5204 126 71.2847 126 69.7603C126 68.2359 127.589 67.0001 129.549 67.0001C131.509 67.0001 133.098 68.2359 133.098 69.7603Z" fill="#4DB45E"/>
<path d="M42.1084 23.7271L43.3033 27.5445L47.4227 26.2551L45.8239 22.2456L42.1084 23.7271ZM105.574 20.0142L101.582 19.7651L101.344 23.5799L105.144 23.991L105.574 20.0142ZM99.6125 48.0679L100.087 44.0961L96.5768 43.677L95.7292 47.1086L99.6125 48.0679ZM52.459 52.1948L55.824 50.0322L54.6357 48.1832L52.4378 48.1948L52.459 52.1948ZM45.8239 22.2456C45.4337 21.2669 45.2402 20.2832 45.2402 19.2912L37.2402 19.2912C37.2402 21.3532 37.6478 23.34 38.3929 25.2087L45.8239 22.2456ZM45.2402 19.2912C45.2402 15.9783 47.5205 12.2791 52.7103 9.19144C57.8151 6.1543 65.1272 4.14648 73.4185 4.14648V-3.85352C63.9383 -3.85352 55.1613 -1.57564 48.6198 2.31625C42.1633 6.15758 37.2402 12.0307 37.2402 19.2912L45.2402 19.2912ZM73.4185 4.14648C81.7099 4.14648 89.022 6.1543 94.1268 9.19143C99.3165 12.2791 101.597 15.9783 101.597 19.2912H109.597C109.597 12.0307 104.674 6.15758 98.2172 2.31625C91.6758 -1.57564 82.8987 -3.85352 73.4185 -3.85352V4.14648ZM101.597 19.2912C101.597 19.45 101.592 19.608 101.582 19.7651L109.566 20.2633C109.587 19.9406 109.597 19.6165 109.597 19.2912H101.597ZM105.144 23.991C113.497 24.8947 118.056 29.8812 118.056 34.0572H126.056C126.056 23.9709 116.301 17.1514 106.005 16.0374L105.144 23.991ZM118.056 34.0572C118.056 36.3999 116.772 38.8556 114.029 40.8711C111.288 42.8851 107.308 44.2523 102.735 44.2523V52.2523C108.833 52.2523 114.514 50.4418 118.766 47.3182C123.015 44.196 126.056 39.5542 126.056 34.0572H118.056ZM102.735 44.2523C101.83 44.2523 100.945 44.1986 100.087 44.0961L99.1383 52.0397C100.312 52.1798 101.514 52.2523 102.735 52.2523V44.2523ZM95.7292 47.1086C95.0453 49.8773 92.8641 52.6899 89.175 54.8809C85.5149 57.0548 80.617 58.4472 75.1336 58.4472V66.4472C81.9198 66.4472 88.2527 64.7333 93.2602 61.7592C98.2389 58.8023 102.162 54.4252 103.496 49.0271L95.7292 47.1086ZM75.1336 58.4472C65.9585 58.4472 58.7632 54.6057 55.824 50.0322L49.094 54.3574C53.9225 61.8707 64.1104 66.4472 75.1336 66.4472V58.4472ZM52.2642 56.1953C52.3362 56.1953 52.4082 56.1951 52.4801 56.1947L52.4378 48.1948C52.38 48.1951 52.3222 48.1953 52.2642 48.1953V56.1953ZM25 37.2116C25 43.168 28.7433 48.0105 33.648 51.1695C38.5947 54.3555 45.1876 56.1953 52.2642 56.1953V48.1953C46.4924 48.1953 41.4532 46.6809 37.9798 44.4438C34.4646 42.1797 33 39.5304 33 37.2116H25ZM40.9136 19.9098C32.5068 22.5411 25 28.6574 25 37.2116H33C33 33.9055 36.1906 29.7708 43.3033 27.5445L40.9136 19.9098ZM117.326 67.2357C121.632 67.2357 126.846 64.3478 126.846 58.8983H118.846C118.846 58.6335 118.993 58.6353 118.758 58.82C118.517 59.0097 118.024 59.2357 117.326 59.2357V67.2357ZM107.806 58.8983C107.806 64.3478 113.02 67.2357 117.326 67.2357V59.2357C116.628 59.2357 116.135 59.0097 115.894 58.82C115.659 58.6353 115.806 58.6335 115.806 58.8983H107.806ZM117.326 50.5609C113.02 50.5609 107.806 53.4488 107.806 58.8983H115.806C115.806 59.1631 115.659 59.1613 115.894 58.9766C116.135 58.787 116.628 58.5609 117.326 58.5609L117.326 50.5609ZM126.846 58.8983C126.846 53.4488 121.632 50.5609 117.326 50.5609L117.326 58.5609C118.024 58.5609 118.517 58.787 118.758 58.9766C118.993 59.1613 118.846 59.1631 118.846 58.8983H126.846ZM129.549 76.5204C132.724 76.5204 137.098 74.3711 137.098 69.7603H129.098C129.098 69.043 129.482 68.6486 129.602 68.5546C129.718 68.4648 129.712 68.5204 129.549 68.5204V76.5204ZM122 69.7603C122 74.3711 126.373 76.5204 129.549 76.5204V68.5204C129.385 68.5204 129.38 68.4648 129.495 68.5546C129.616 68.6486 130 69.043 130 69.7603H122ZM129.549 63.0001C126.373 63.0001 122 65.1495 122 69.7603H130C130 70.4775 129.616 70.872 129.495 70.966C129.38 71.0557 129.385 71.0001 129.549 71.0001V63.0001ZM137.098 69.7603C137.098 65.1495 132.724 63.0001 129.549 63.0001V71.0001C129.712 71.0001 129.718 71.0557 129.602 70.966C129.482 70.872 129.098 70.4775 129.098 69.7603H137.098Z" fill="#4DB45E" mask="url(#path-4-inside-1_501_1314)"/>
<path d="M234.201 25.2183L153.252 47.8581C159.501 47.9054 174.8 50.6001 186 61.0001C200 74.0001 211.936 94.8558 207.218 102.928L253.825 81.512C278.968 71.1099 257.505 18.4876 234.201 25.2183Z" fill="#4DB45E"/>
<path d="M153.252 47.8581L152.713 45.932L153.237 49.858L153.252 47.8581ZM234.201 25.2183L234.74 27.1444L234.748 27.1421L234.756 27.1398L234.201 25.2183ZM253.825 81.512L253.061 79.6639L253.025 79.6786L252.99 79.6946L253.825 81.512ZM207.218 102.928L205.491 101.919L202.292 107.393L208.053 104.745L207.218 102.928ZM186 61.0001L187.361 59.5345L186 61.0001ZM153.791 49.7842L234.74 27.1444L233.662 23.2922L152.713 45.932L153.791 49.7842ZM234.756 27.1398C239.735 25.7018 244.769 27.3635 249.341 31.2377C253.924 35.1211 257.833 41.0827 260.309 47.6463C262.787 54.2139 263.753 61.1791 262.676 67.0187C261.612 72.7925 258.591 77.376 253.061 79.6639L254.59 83.36C261.631 80.4469 265.355 74.5518 266.61 67.7437C267.853 61.0013 266.71 53.2813 264.052 46.2344C261.392 39.1835 257.138 32.6014 251.927 28.1861C246.706 23.7616 240.319 21.3695 233.646 23.2969L234.756 27.1398ZM252.99 79.6946L206.383 101.111L208.053 104.745L254.66 83.3293L252.99 79.6946ZM153.237 49.858C159.17 49.903 173.92 52.5127 184.639 62.4657L187.361 59.5345C175.68 48.6876 159.833 45.9079 153.267 45.8581L153.237 49.858ZM184.639 62.4657C191.48 68.8176 197.824 77.1031 201.86 84.7459C203.879 88.5696 205.279 92.155 205.903 95.2006C206.537 98.2997 206.306 100.526 205.491 101.919L208.945 103.937C210.489 101.294 210.535 97.8862 209.821 94.3983C209.096 90.8569 207.522 86.9024 205.397 82.8781C201.144 74.825 194.52 66.1827 187.361 59.5345L184.639 62.4657Z" fill="#4DB45E"/>
<circle cx="265.494" cy="92.4937" r="37.4937" fill="white" stroke="#4DB45E" stroke-width="4"/>
<path d="M282.745 80.8843L260.069 103.561L249.762 93.2532" stroke="#4DB45E" stroke-width="4" stroke-linecap="round" stroke-linejoin="round"/>
</svg>
