<svg width="155" height="242" viewBox="0 0 155 242" fill="none" xmlns="http://www.w3.org/2000/svg">
<path d="M153.97 200.851L138.017 111.805L125.231 95.6152C122.064 91.0397 123.824 84.8217 128.75 82.4753L132.387 80.8328L129.22 63.4694C129.102 62.2962 128.047 61.3577 126.756 61.3577H49.339C48.0487 61.3577 47.1104 62.2962 46.8758 63.4694L43.7087 80.7155L47.4622 82.4753C52.3888 84.8217 54.1483 91.0397 50.9812 95.6152L38.0783 112.04L22.1257 200.851C21.8911 202.259 23.0641 203.667 24.5889 203.667H151.389C153.031 203.55 154.204 202.259 153.97 200.851Z" fill="#FC4120"/>
<path d="M102.828 59.0114H73.5029V49.8605C73.5029 48.4526 74.5586 47.3967 75.9662 47.3967H100.247C101.655 47.3967 102.71 48.4526 102.71 49.8605V59.0114H102.828Z" fill="#FC4120"/>
<path d="M135.767 231.367H38.6826L42.0074 206.304H132.442L135.767 231.367Z" fill="#FC4120"/>
<path d="M89.8785 48.7089C88.3612 41.4937 77.6674 36.4051 78.8809 25.1646C80.3979 11.1139 91.0162 14.5316 97.0839 2" stroke="#FC4120" stroke-width="4" stroke-linecap="round"/>
<path d="M76.881 145.544C76.881 166.254 60.1158 183.038 39.4405 183.038C18.7652 183.038 2 166.254 2 145.544C2 124.834 18.7652 108.051 39.4405 108.051C60.1158 108.051 76.881 124.834 76.881 145.544Z" fill="white" stroke="#FC4120" stroke-width="4"/>
<path d="M55.0436 129.92L23.8379 161.168M23.8379 129.92L55.0436 161.168" stroke="#FC4120" stroke-width="4" stroke-linecap="round" stroke-linejoin="round"/>
<path d="M53.5723 240L44.6987 233.367H129.751L120.877 240H53.5723Z" stroke="#FC4120" stroke-width="4" stroke-linecap="round"/>
<path d="M23.5127 201.747L37.9236 215.418" stroke="#FC4120" stroke-width="4" stroke-linecap="round"/>
<path d="M152.453 201.747L138.042 215.418" stroke="#FC4120" stroke-width="4" stroke-linecap="round"/>
</svg>
