<svg width="50" height="46" viewBox="0 0 50 46" fill="none" xmlns="http://www.w3.org/2000/svg">
<path d="M8.61683 42.2856C8.28956 42.2856 7.99074 42.0701 7.89699 41.7428L4.68154 30.5532C4.61835 30.3335 4.65894 30.0975 4.79161 29.9112L10.6164 21.7248C11.7133 20.1825 13.3234 19.0575 15.1476 18.5567L21.1403 16.914C21.4379 16.8328 21.7535 16.9412 21.9384 17.1865C22.123 17.4326 22.1389 17.7665 21.9782 18.0289L16.7317 26.6017L18.253 27.4028L25.2467 22.7126C26.367 21.9442 27.8707 22.0337 28.8977 22.9319C30.006 23.902 30.2387 25.5651 29.4405 26.801L22.0475 36.6243C20.8339 38.5076 18.9208 39.8681 16.6915 40.4114L8.7887 42.2662C8.73095 42.2796 8.67403 42.2859 8.61669 42.2859L8.61683 42.2856ZM6.2225 30.4864L9.14117 40.6424L16.3429 38.9521C18.1915 38.5018 19.783 37.3696 20.8184 35.766L28.2114 25.9427C28.5785 25.3714 28.4621 24.5432 27.9097 24.0602C27.3999 23.6124 26.6499 23.5681 26.0883 23.9535L18.7166 28.8974C18.4894 29.0502 18.1943 29.0673 17.9499 28.938L15.325 27.5565C15.1422 27.4602 15.0066 27.2915 14.9513 27.0919C14.8965 26.8923 14.9266 26.6784 15.0346 26.5014L19.7102 18.8619L15.5444 20.0035C14.0515 20.4129 12.7357 21.3331 11.8376 22.5946L6.2225 30.4864Z" fill="#FC4120"/>
<path d="M4.63352 45.0047C4.3075 45.0047 4.00785 44.7913 3.91368 44.4632L0.0299014 31.0708C-0.0257604 30.88 -0.00316013 30.6745 0.0930965 30.5008C0.188935 30.3263 0.350058 30.1974 0.541322 30.1422L4.94279 28.8657C5.13112 28.8109 5.33829 28.8327 5.51322 28.9289C5.68774 29.0247 5.81664 29.1859 5.87147 29.3771L9.75482 42.7695C9.87075 43.1671 9.64141 43.5831 9.24382 43.6986L4.84278 44.9746C4.77289 44.9943 4.70258 45.0043 4.63353 45.0043L4.63352 45.0047ZM1.67928 31.3745L5.145 43.3259L8.10514 42.4671L4.64027 30.5158L1.67928 31.3745Z" fill="#FC4120"/>
<path d="M32.092 36.0673C31.5588 36.0673 31.0198 35.94 30.5209 35.6739L24.4207 32.4149C24.0553 32.2203 23.9168 31.7658 24.1122 31.4C24.3068 31.0347 24.7634 30.8966 25.1267 31.092L31.2273 34.3509C32.0806 34.8063 33.1549 34.5225 33.6697 33.701L47.7124 11.3112C47.9878 10.873 48.0669 10.3574 47.9359 9.85728C47.8057 9.35757 47.4834 8.94618 47.0298 8.69889L34.2289 1.72481C33.3667 1.25566 32.2857 1.54024 31.768 2.37517L22.0313 18.0678C21.8124 18.4193 21.3517 18.5281 20.9989 18.3093C20.6473 18.0912 20.5389 17.6283 20.7574 17.2768L30.494 1.58526C31.4303 0.0748187 33.3855 -0.44159 34.9469 0.408877L47.7479 7.38296C48.5564 7.82366 49.1541 8.58742 49.3876 9.47881C49.6207 10.3698 49.4734 11.3287 48.9834 12.1092L34.9418 34.4979C34.3098 35.5053 33.2141 36.0673 32.0921 36.0673L32.092 36.0673Z" fill="#FC4120"/>
<path d="M38.1721 11.6225C36.7562 11.6225 35.6045 10.4703 35.6045 9.05446C35.6045 7.63819 36.7567 6.48645 38.1721 6.48645C39.5888 6.48645 40.7405 7.63862 40.7405 9.05446C40.7405 10.4703 39.5888 11.6225 38.1721 11.6225ZM38.1721 7.98607C37.5832 7.98607 37.1045 8.46527 37.1045 9.05412C37.1045 9.64296 37.5837 10.1222 38.1721 10.1222C38.7609 10.1222 39.2405 9.64296 39.2405 9.05412C39.2405 8.46569 38.7609 7.98607 38.1721 7.98607Z" fill="#FC4120"/>
<path d="M32.4218 26.863C31.1876 26.863 29.9397 26.5525 28.7942 25.9021C28.4339 25.6974 28.3079 25.2396 28.513 24.8793C28.7168 24.5189 29.1738 24.3929 29.5354 24.5976C32.2512 26.141 35.6972 25.2802 37.382 22.6423C38.2279 21.3186 38.5079 19.7454 38.1709 18.2128C37.834 16.6797 36.92 15.3703 35.5975 14.5257C34.2733 13.6803 32.7001 13.3995 31.1629 13.7372C29.6278 14.0741 28.3166 14.9882 27.4725 16.3107C26.2525 18.2275 26.2312 20.6213 27.4189 22.5582C27.6357 22.9114 27.5244 23.3734 27.1716 23.5898C26.8179 23.8062 26.3563 23.6948 26.1404 23.3425C24.6509 20.9121 24.6764 17.9089 26.2078 15.5042C27.2691 13.8427 28.9147 12.6947 30.8415 12.2716C32.77 11.8497 34.7437 12.2005 36.4048 13.261C38.0659 14.3219 39.2134 15.9658 39.637 17.8901C40.0597 19.8136 39.7081 21.7877 38.6468 23.4492C37.2418 25.6489 34.8609 26.863 32.4218 26.863L32.4218 26.863Z" fill="#FC4120"/>
</svg>
