<svg width="313" height="241" viewBox="0 0 313 241" fill="none" xmlns="http://www.w3.org/2000/svg">
<path d="M32 161.011C32 159.906 32.8954 159.011 34 159.011H148.429C149.533 159.011 150.429 159.906 150.429 161.011V172.676H32V161.011Z" fill="#FC4120"/>
<path d="M36.3867 175.781H146.043V239C146.043 240.105 145.147 241 144.043 241H38.3867C37.2822 241 36.3867 240.105 36.3867 239V175.781Z" fill="#FC4120"/>
<path d="M42.9658 147.346C42.9658 146.242 43.8613 145.346 44.9658 145.346H56.3177C57.4223 145.346 58.3177 146.242 58.3177 147.346V156.216H42.9658V147.346Z" fill="#FC4120"/>
<path d="M121.918 147.346C121.918 146.242 122.813 145.346 123.918 145.346H135.27C136.374 145.346 137.27 146.242 137.27 147.346V156.216H121.918V147.346Z" fill="#FC4120"/>
<path d="M102.033 184.663C102.326 184.817 102.552 185.057 102.675 185.344C102.799 185.63 102.812 185.946 102.712 186.239L97.3258 202.141H107.263C107.555 202.141 107.841 202.218 108.085 202.364C108.329 202.51 108.521 202.717 108.637 202.961C108.752 203.205 108.787 203.474 108.737 203.735C108.686 203.996 108.552 204.238 108.352 204.432L84.4277 227.528C84.1962 227.752 83.8882 227.898 83.5538 227.942C83.2194 227.986 82.8784 227.926 82.5864 227.772C82.2943 227.618 82.0685 227.378 81.9456 227.092C81.8227 226.806 81.8101 226.49 81.9097 226.197L87.2956 210.293H77.3582C77.0661 210.293 76.7804 210.215 76.5364 210.069C76.2923 209.924 76.1006 209.716 75.9848 209.473C75.869 209.229 75.8343 208.96 75.8849 208.699C75.9355 208.437 76.0693 208.195 76.2696 208.002L100.194 184.905C100.425 184.682 100.733 184.536 101.066 184.492C101.4 184.447 101.741 184.507 102.033 184.661V184.663ZM80.8182 207.575H89.3202C89.5542 207.575 89.785 207.625 89.9939 207.721C90.2028 207.817 90.3841 207.956 90.5232 208.127C90.6622 208.298 90.7551 208.496 90.7945 208.706C90.8338 208.915 90.8185 209.13 90.7497 209.334L86.6587 221.406L103.8 204.858H95.3013C95.0672 204.858 94.8365 204.808 94.6276 204.713C94.4186 204.617 94.2374 204.478 94.0983 204.307C93.9593 204.136 93.8663 203.938 93.827 203.728C93.7876 203.518 93.803 203.303 93.8718 203.1L97.9628 191.027L80.8182 207.575Z" fill="white"/>
<path fill-rule="evenodd" clip-rule="evenodd" d="M124.844 215.514C124.844 216.471 125.632 217.247 126.604 217.247C127.576 217.247 128.364 216.471 128.364 215.514V207.888H136.11C137.082 207.888 137.87 207.112 137.87 206.155C137.87 205.197 137.082 204.421 136.11 204.421H128.364V196.796C128.364 195.838 127.576 195.063 126.604 195.062C125.632 195.062 124.844 195.838 124.844 196.796V204.421H117.099C116.127 204.421 115.339 205.197 115.339 206.155C115.339 207.112 116.127 207.888 117.099 207.888H124.844V215.514Z" fill="white"/>
<path fill-rule="evenodd" clip-rule="evenodd" d="M42.6279 205.573C42.6279 204.594 43.0685 203.801 43.612 203.801H59.3575C59.901 203.801 60.3416 204.594 60.3416 205.573C60.3416 206.551 59.901 207.344 59.3575 207.344H43.612C43.0685 207.344 42.6279 206.551 42.6279 205.573Z" fill="white"/>
<path fill-rule="evenodd" clip-rule="evenodd" d="M250.171 75.8373C250.171 76.3618 250.603 76.787 251.135 76.787C251.668 76.787 252.1 76.3618 252.1 75.8373V71.6583H256.344C256.877 71.6583 257.309 71.2331 257.309 70.7085C257.309 70.184 256.877 69.7587 256.344 69.7587H252.1V65.5797C252.1 65.0551 251.668 64.6299 251.135 64.6299C250.603 64.6299 250.171 65.0551 250.171 65.5797V69.7587H245.927C245.394 69.7587 244.962 70.184 244.962 70.7085C244.962 71.2331 245.394 71.6583 245.927 71.6583H250.171V75.8373Z" fill="#FC4120"/>
<path fill-rule="evenodd" clip-rule="evenodd" d="M180 70C180 69.4477 180.455 69 181.016 69H191.984C192.545 69 193 69.4477 193 70C193 70.5523 192.545 71 191.984 71H181.016C180.455 71 180 70.5523 180 70Z" fill="#333333"/>
<path d="M251.122 107.946L289.506 31.7645C298.16 32.3068 298.042 38.8044 296.901 41.9854C288.349 79.0889 271.103 154.177 270.538 157.7C269.973 161.224 266.882 162.175 264.376 161.894L255.648 160.531C256.47 150.941 256.196 126.007 256.196 126.007C261.402 124.363 260.306 116.143 254.444 115.321L248.347 115.684C241.4 117.513 243.866 126.007 247.976 126.007L249.894 159.983C247.428 160.37 242.77 161.353 239.208 161.894C235.119 162.516 234.189 160.37 233.269 157.724C221.28 123.248 197.107 52.0711 196.338 43.1788C195.568 34.2864 201.715 32.7844 204.885 33.145L251.122 107.946Z" fill="#FC4120"/>
<path d="M186.121 107.946L224.505 31.7645C233.159 32.3068 233.041 38.8044 231.9 41.9854C223.348 79.0889 206.102 154.177 205.537 157.7C204.972 161.224 201.881 162.175 199.375 161.894L190.647 160.531C191.469 150.941 191.195 126.007 191.195 126.007C196.401 124.363 195.305 116.143 189.443 115.321L183.346 115.684C176.399 117.513 178.865 126.007 182.975 126.007L184.893 159.983C182.427 160.37 177.769 161.353 174.207 161.894C170.118 162.516 169.189 160.37 168.269 157.724C156.279 123.248 132.106 52.0711 131.337 43.1788C130.567 34.2864 136.714 32.7844 139.884 33.145L186.121 107.946Z" fill="#333333"/>
<circle cx="251.156" cy="110.287" r="7.76812" transform="rotate(19.73 251.156 110.287)" fill="#FC4120" stroke="white" stroke-width="2"/>
<circle cx="186.155" cy="110.287" r="7.76812" transform="rotate(19.73 186.155 110.287)" fill="#333333" stroke="white" stroke-width="2"/>
<path d="M227.5 36C230.5 8 199.088 21.6347 185 1.5" stroke="#333333" stroke-width="2"/>
<path d="M291.746 36C294.746 8 263.334 21.6347 249.246 1.5" stroke="#FC4120" stroke-width="2"/>
<circle cx="39.4937" cy="155.494" r="37.4937" fill="white" stroke="#FC4120" stroke-width="4"/>
<path d="M55.1179 139.87L23.8701 171.118M23.8701 139.87L55.1179 171.118" stroke="#FC4120" stroke-width="4" stroke-linecap="round" stroke-linejoin="round"/>
</svg>
