<svg width="133" height="133" viewBox="0 0 133 133" fill="none" xmlns="http://www.w3.org/2000/svg">
<path d="M84.7098 60.2397L72.3709 79.852C71.8661 80.5516 71.2522 81.1656 70.5526 81.6704C68.8636 82.8486 66.7781 83.3133 64.7487 82.9634C62.7193 82.6136 60.9097 81.4775 59.7128 79.8017C58.5158 78.126 58.028 76.0458 58.3553 74.0126C58.6825 71.9795 59.7984 70.1574 61.4608 68.9419L81.0731 56.603C81.5189 56.2922 82.0493 56.1256 82.5927 56.1256C83.1361 56.1256 83.6665 56.2922 84.1123 56.603C84.6722 57.0072 85.0494 57.6166 85.1613 58.2981C85.2733 58.9795 85.1109 59.6776 84.7098 60.2397Z" fill="#4DB45E"/>
<path d="M66.5001 16.625C34.367 16.625 8.31256 42.6535 8.31256 74.7865C8.29285 89.0032 13.4976 102.731 22.9374 113.362C23.2231 113.673 23.4829 113.985 23.7686 114.271C24.3833 114.936 25.1295 115.467 25.96 115.829C26.7904 116.191 27.687 116.377 28.593 116.374C29.4989 116.372 30.3945 116.181 31.223 115.815C32.0515 115.448 32.7948 114.914 33.4059 114.245C37.618 109.667 42.7339 106.014 48.4303 103.514C54.1266 101.015 60.2795 99.7244 66.5001 99.7244C72.7206 99.7244 78.8735 101.015 84.5698 103.514C90.2662 106.014 95.3821 109.667 99.5942 114.245C100.205 114.914 100.949 115.448 101.777 115.815C102.606 116.181 103.501 116.372 104.407 116.374C105.313 116.377 106.21 116.191 107.04 115.829C107.871 115.467 108.617 114.936 109.232 114.271L110.063 113.362C119.503 102.731 124.707 89.0032 124.688 74.7865C124.688 42.6535 98.6331 16.625 66.5001 16.625Z" stroke="#4DB45E" stroke-width="8" stroke-linecap="round" stroke-linejoin="round"/>
<path d="M90.0114 51.3011L95.8899 45.4226M66.5 33.25V41.5625V33.25ZM108.062 74.8125H99.75H108.062ZM33.25 74.8125H24.9375H33.25ZM42.9886 51.3011L37.1101 45.4226L42.9886 51.3011Z" stroke="#4DB45E" stroke-width="5" stroke-miterlimit="10" stroke-linecap="round"/>
</svg>
