<svg width="155" height="242" viewBox="0 0 155 242" fill="none" xmlns="http://www.w3.org/2000/svg">
<path d="M153.971 200.851L138.018 111.805L125.233 95.6153C122.065 91.0398 123.825 84.8218 128.751 82.4754L132.388 80.8329L129.221 63.4696C129.103 62.2963 128.048 61.3578 126.757 61.3578H49.34C48.0497 61.3578 47.1113 62.2963 46.8767 63.4696L43.7097 80.7156L47.4632 82.4754C52.3898 84.8218 54.1493 91.0398 50.9822 95.6153L38.0793 112.04L22.1266 200.851C21.892 202.259 23.065 203.667 24.5899 203.667H151.39C153.032 203.55 154.205 202.259 153.971 200.851Z" fill="#4DB45E"/>
<path d="M102.828 59.0114H73.5029V49.8605C73.5029 48.4526 74.5586 47.3967 75.9662 47.3967H100.247C101.655 47.3967 102.71 48.4526 102.71 49.8605V59.0114H102.828Z" fill="#4DB45E"/>
<path d="M135.767 231.367H38.6826L42.0074 206.304H132.442L135.767 231.367Z" fill="#4DB45E"/>
<path d="M89.8785 48.7089C88.3612 41.4937 77.6674 36.4051 78.8809 25.1646C80.3979 11.1139 91.0163 14.5316 97.0839 2" stroke="#4DB45E" stroke-width="4" stroke-linecap="round"/>
<path d="M76.8811 145.544C76.8811 166.254 60.1158 183.038 39.4405 183.038C18.7652 183.038 2 166.254 2 145.544C2 124.834 18.7652 108.051 39.4405 108.051C60.1158 108.051 76.8811 124.834 76.8811 145.544Z" fill="white" stroke="#4DB45E" stroke-width="4"/>
<path d="M56.6688 133.935L34.023 156.611L23.7295 146.304" stroke="#4DB45E" stroke-width="4" stroke-linecap="round" stroke-linejoin="round"/>
<path d="M53.5723 240L44.6987 233.367H129.751L120.877 240H53.5723Z" stroke="#4DB45E" stroke-width="4" stroke-linecap="round"/>
<path d="M23.5137 201.747L37.9246 215.418" stroke="#4DB45E" stroke-width="4" stroke-linecap="round"/>
<path d="M152.453 201.747L138.042 215.418" stroke="#4DB45E" stroke-width="4" stroke-linecap="round"/>
</svg>
