<svg width="77" height="25" viewBox="0 0 77 25" fill="none" xmlns="http://www.w3.org/2000/svg">
<path d="M29.2359 0.443477L19.1537 24.621H12.5767L7.61578 5.32575C7.315 4.13643 7.05432 3.70102 6.13594 3.2011C4.64005 2.38671 2.16964 1.62071 0 1.14498L0.148385 0.443477H10.7359C12.0834 0.443477 13.2985 1.34656 13.6033 2.91082L16.2221 16.9005L22.699 0.443477H29.2359ZM55.0069 16.7271C55.0349 10.3451 46.2281 9.99436 46.2882 7.14401C46.3083 6.27721 47.1304 5.35398 48.9271 5.12014C49.8174 5.00323 52.2758 4.91453 55.063 6.20061L56.1539 1.07241C54.658 0.524109 52.733 0 50.3347 0C44.1828 0 39.8555 3.28576 39.8194 7.99468C39.7793 11.474 42.9074 13.4172 45.2656 14.5743C47.6919 15.7596 48.506 16.5215 48.494 17.5778C48.4779 19.1985 46.5609 19.9161 44.7683 19.9444C41.6402 19.9927 39.8274 19.0937 38.3797 18.4164L37.2528 23.7139C38.7045 24.3832 41.3915 24.9677 44.1707 25C50.7117 25 54.9868 21.7546 55.0069 16.7271ZM71.245 24.621H77L71.9749 0.443477H66.6652C65.4701 0.443477 64.4634 1.14094 64.0183 2.21738L54.682 24.621H61.215L62.5144 21.0087H70.4951L71.245 24.621ZM64.303 16.0539L67.5795 6.97468L69.4644 16.0539H64.303ZM38.127 0.443477L32.9817 24.621H26.7575L31.9069 0.443477H38.127Z" fill="#1434CB"/>
</svg>
