<svg width="59" height="46" viewBox="0 0 59 46" fill="none" xmlns="http://www.w3.org/2000/svg">
<g clip-path="url(#clip0_292_410)">
<path d="M10.6933 45.8992V42.8464C10.6933 41.6786 9.98477 40.9139 8.76839 40.9139C8.16021 40.9139 7.49888 41.1155 7.04421 41.7794C6.68993 41.2222 6.18212 40.9139 5.42041 40.9139C4.91261 40.9139 4.4048 41.068 4.00328 41.6253V41.0147H2.94043V45.8992H4.00328V43.2021C4.00328 42.3366 4.45794 41.9276 5.16651 41.9276C5.87508 41.9276 6.22936 42.384 6.22936 43.2021V45.8992H7.29221V43.2021C7.29221 42.3366 7.80002 41.9276 8.45544 41.9276C9.16401 41.9276 9.51829 42.384 9.51829 43.2021V45.8992H10.6933ZM26.4589 41.0147H24.7348V39.5387H23.6719V41.0147H22.7094V41.9809H23.6719V44.2216C23.6719 45.342 24.1266 46 25.343 46C25.7976 46 26.3054 45.8459 26.6597 45.6443L26.3527 44.7255C26.0456 44.9271 25.6913 44.9804 25.4374 44.9804C24.9296 44.9804 24.7289 44.6722 24.7289 44.1683V41.9809H26.453V41.0147H26.4589ZM35.4814 40.908C34.8732 40.908 34.4658 41.2162 34.2118 41.6193V41.0088H33.149V45.8933H34.2118V43.1428C34.2118 42.3307 34.5661 41.8683 35.2275 41.8683C35.4282 41.8683 35.6821 41.9216 35.8888 41.9691L36.1958 40.9495C35.9833 40.908 35.6821 40.908 35.4814 40.908ZM21.8474 41.4178C21.3396 41.0621 20.631 40.908 19.8693 40.908C18.6529 40.908 17.844 41.5186 17.844 42.4848C17.844 43.2969 18.4521 43.7593 19.515 43.9075L20.0228 43.9608C20.5778 44.0616 20.8849 44.2157 20.8849 44.4706C20.8849 44.8263 20.4775 45.0812 19.7689 45.0812C19.0603 45.0812 18.4994 44.8263 18.1451 44.5714L17.6373 45.3835C18.1923 45.7925 18.954 45.9941 19.7157 45.9941C21.1329 45.9941 21.9477 45.3302 21.9477 44.4173C21.9477 43.5518 21.2864 43.0954 20.2767 42.9412L19.7689 42.8879C19.3142 42.8345 18.9599 42.7338 18.9599 42.4314C18.9599 42.0758 19.3142 41.8742 19.8752 41.8742C20.4834 41.8742 21.0916 42.1291 21.3986 42.2832L21.8474 41.4178ZM50.1251 40.908C49.5169 40.908 49.1095 41.2162 48.8556 41.6193V41.0088H47.7927V45.8933H48.8556V43.1428C48.8556 42.3307 49.2098 41.8683 49.8712 41.8683C50.0719 41.8683 50.3258 41.9216 50.5325 41.9691L50.8396 40.9613C50.6329 40.908 50.3317 40.908 50.1251 40.908ZM36.5442 43.457C36.5442 44.933 37.5598 46 39.1305 46C39.8391 46 40.3469 45.8459 40.8547 45.4428L40.3469 44.5773C39.9394 44.8856 39.5379 45.0338 39.0773 45.0338C38.2152 45.0338 37.6071 44.4232 37.6071 43.457C37.6071 42.5381 38.2152 41.9276 39.0773 41.8802C39.532 41.8802 39.9394 42.0343 40.3469 42.3366L40.8547 41.4711C40.3469 41.0621 39.8391 40.9139 39.1305 40.9139C37.5598 40.908 36.5442 41.9809 36.5442 43.457ZM46.3756 43.457V41.0147H45.3127V41.6253C44.9584 41.1688 44.4506 40.9139 43.7893 40.9139C42.4194 40.9139 41.3566 41.9809 41.3566 43.457C41.3566 44.933 42.4194 46 43.7893 46C44.4979 46 45.0057 45.7451 45.3127 45.2887V45.8992H46.3756V43.457ZM42.4726 43.457C42.4726 42.5915 43.0276 41.8802 43.9428 41.8802C44.8049 41.8802 45.4131 42.5441 45.4131 43.457C45.4131 44.3224 44.8049 45.0338 43.9428 45.0338C43.0335 44.9804 42.4726 44.3165 42.4726 43.457ZM29.7538 40.908C28.3366 40.908 27.321 41.9276 27.321 43.451C27.321 44.9804 28.3366 45.9941 29.8069 45.9941C30.5155 45.9941 31.2241 45.7925 31.785 45.3302L31.2772 44.5655C30.8698 44.8737 30.362 45.0753 29.8601 45.0753C29.1987 45.0753 28.5433 44.767 28.3898 43.9075H31.9858C31.9858 43.7534 31.9858 43.6526 31.9858 43.4985C32.033 41.9276 31.1178 40.908 29.7538 40.908ZM29.7538 41.8268C30.4151 41.8268 30.8698 42.2358 30.9702 42.9946H28.437C28.5374 42.3366 28.9921 41.8268 29.7538 41.8268ZM56.1597 43.457V39.0822H55.0969V41.6253C54.7426 41.1688 54.2348 40.9139 53.5734 40.9139C52.2035 40.9139 51.1407 41.9809 51.1407 43.457C51.1407 44.933 52.2035 46 53.5734 46C54.282 46 54.7898 45.7451 55.0969 45.2887V45.8992H56.1597V43.457ZM52.2567 43.457C52.2567 42.5915 52.8117 41.8802 53.727 41.8802C54.5891 41.8802 55.1972 42.5441 55.1972 43.457C55.1972 44.3224 54.5891 45.0338 53.727 45.0338C52.8117 44.9804 52.2567 44.3165 52.2567 43.457ZM16.6748 43.457V41.0147H15.612V41.6253C15.2577 41.1688 14.7499 40.9139 14.0885 40.9139C12.7187 40.9139 11.6558 41.9809 11.6558 43.457C11.6558 44.933 12.7187 46 14.0885 46C14.7971 46 15.3049 45.7451 15.612 45.2887V45.8992H16.6748V43.457ZM12.7246 43.457C12.7246 42.5915 13.2796 41.8802 14.1948 41.8802C15.0569 41.8802 15.6651 42.5441 15.6651 43.457C15.6651 44.3224 15.0569 45.0338 14.1948 45.0338C13.2796 44.9804 12.7246 44.3165 12.7246 43.457Z" fill="black"/>
<path d="M37.4595 3.91827H21.4932V32.7157H37.4595V3.91827Z" fill="#FF5A00"/>
<path d="M22.556 18.317C22.556 12.4662 25.2958 7.27345 29.5 3.9183C26.4059 1.47603 22.5029 0 18.2456 0C8.16033 0 0 8.19227 0 18.317C0 28.4418 8.16033 36.634 18.2456 36.634C22.5029 36.634 26.4059 35.158 29.5 32.7157C25.2899 29.408 22.556 24.1678 22.556 18.317Z" fill="#EB001B"/>
<path d="M59 18.317C59 28.4418 50.8397 36.634 40.7544 36.634C36.4971 36.634 32.5941 35.158 29.5 32.7157C33.7573 29.3546 36.444 24.1678 36.444 18.317C36.444 12.4662 33.7042 7.27345 29.5 3.9183C32.5882 1.47603 36.4912 0 40.7485 0C50.8397 0 59 8.24562 59 18.317Z" fill="#F79E1B"/>
</g>
<defs>
<clipPath id="clip0_292_410">
<rect width="59" height="46" fill="white"/>
</clipPath>
</defs>
</svg>
