<svg width="81" height="23" viewBox="0 0 81 23" fill="none" xmlns="http://www.w3.org/2000/svg">
<path fill-rule="evenodd" clip-rule="evenodd" d="M21.8269 4.37595e-07V0.0100441C21.8169 0.0100441 18.663 3.83136e-07 17.822 3.02314C17.051 5.7952 14.8784 13.4485 14.8183 13.6594H14.2176C14.2176 13.6594 11.9948 5.83537 11.2138 3.0131C10.3728 -0.0100433 7.2089 4.37595e-07 7.2089 4.37595e-07H0V23H7.2089V9.34061H7.50927H7.80964L12.0148 23H17.021L21.2262 9.35066H21.8269V23H29.0358V4.37595e-07H21.8269Z" fill="#4DB45E"/>
<path fill-rule="evenodd" clip-rule="evenodd" d="M48.1594 0C48.1594 0 46.0468 0.19083 45.0556 2.41048L39.9493 13.6594H39.3485V0H32.1396V23H38.9481C38.9481 23 41.1608 22.7991 42.152 20.5895L47.1582 9.34061H47.7589V23H54.9678V0H48.1594Z" fill="#4DB45E"/>
<path fill-rule="evenodd" clip-rule="evenodd" d="M58.1719 10.4454V23H65.3808V15.6681H73.1904C76.5946 15.6681 79.4782 13.4887 80.5495 10.4454H58.1719Z" fill="#4DB45E"/>
<path fill-rule="evenodd" clip-rule="evenodd" d="M73.1899 0H57.1602C57.9611 4.37904 61.2352 7.89432 65.4704 9.0393C66.4316 9.30044 67.4428 9.44105 68.4841 9.44105H80.8394C80.9495 8.91878 80.9996 8.38646 80.9996 7.83406C80.9996 3.50524 77.5053 0 73.1899 0Z" fill="url(#paint0_linear_292_395)"/>
<defs>
<linearGradient id="paint0_linear_292_395" x1="57.1621" y1="4.72052" x2="80.9996" y2="4.72052" gradientUnits="userSpaceOnUse">
<stop offset="0.3" stop-color="#00B4E6"/>
<stop offset="1" stop-color="#088CCB"/>
</linearGradient>
</defs>
</svg>
