<svg width="36" height="36" viewBox="0 0 36 36" fill="none" xmlns="http://www.w3.org/2000/svg">
<path d="M17.9997 30.8571C25.1005 30.8571 30.8569 25.1008 30.8569 18C30.8569 10.8992 25.1005 5.14282 17.9997 5.14282C10.8989 5.14282 5.14258 10.8992 5.14258 18C5.14258 25.1008 10.8989 30.8571 17.9997 30.8571Z" fill="#EB7509"/>
<path d="M17.9997 30.8571C25.1005 30.8571 30.8569 25.1008 30.8569 18C30.8569 10.8992 25.1005 5.14282 17.9997 5.14282C10.8989 5.14282 5.14258 10.8992 5.14258 18C5.14258 25.1008 10.8989 30.8571 17.9997 30.8571Z" fill="#EB7509"/>
<path d="M23.1426 18L17.9997 12.8571L12.8569 18" fill="#EB7509"/>
<path d="M23.1426 18L17.9997 12.8571L12.8569 18" fill="#EB7509"/>
<path d="M23.1431 18L18.0003 12.8572M18.0003 12.8572L12.8574 18M18.0003 12.8572V23.1429" stroke="white" stroke-width="2" stroke-linecap="round" stroke-linejoin="round"/>
</svg>
