<svg width="37" height="36" viewBox="0 0 37 36" fill="none" xmlns="http://www.w3.org/2000/svg">
<path d="M31.3517 7.71181V15.4261M31.3517 15.4261H23.6374M31.3517 15.4261L25.3988 9.82038C23.6253 8.04576 21.3231 6.89562 18.8391 6.54328C16.355 6.19094 13.8238 6.65549 11.6267 7.86692C9.42966 9.07835 7.68586 10.971 6.65808 13.2598C5.6303 15.5485 5.37422 18.1092 5.92844 20.5562C6.48266 23.0031 7.81714 25.2036 9.7308 26.8261C11.6445 28.4486 14.0336 29.4052 16.5382 29.5517C19.0428 29.6982 21.5272 29.0268 23.617 27.6385C25.7068 26.2502 27.2888 24.2203 28.1245 21.8547" stroke="white" stroke-width="3" stroke-linecap="round" stroke-linejoin="round"/>
</svg>
