<svg width="26" height="26" viewBox="0 0 26 26" fill="none" xmlns="http://www.w3.org/2000/svg">
<path d="M16.791 11.9167C17.6885 11.9167 18.416 11.1891 18.416 10.2917C18.416 9.39422 17.6885 8.66669 16.791 8.66669C15.8936 8.66669 15.166 9.39422 15.166 10.2917C15.166 11.1891 15.8936 11.9167 16.791 11.9167Z" fill="#EB7509"/>
<path d="M16.791 11.9167C17.6885 11.9167 18.416 11.1891 18.416 10.2917C18.416 9.39422 17.6885 8.66669 16.791 8.66669C15.8936 8.66669 15.166 9.39422 15.166 10.2917C15.166 11.1891 15.8936 11.9167 16.791 11.9167Z" fill="#EB7509"/>
<path d="M9.20768 11.9167C10.1051 11.9167 10.8327 11.1891 10.8327 10.2917C10.8327 9.39422 10.1051 8.66669 9.20768 8.66669C8.31022 8.66669 7.58268 9.39422 7.58268 10.2917C7.58268 11.1891 8.31022 11.9167 9.20768 11.9167Z" fill="#EB7509"/>
<path d="M9.20768 11.9167C10.1051 11.9167 10.8327 11.1891 10.8327 10.2917C10.8327 9.39422 10.1051 8.66669 9.20768 8.66669C8.31022 8.66669 7.58268 9.39422 7.58268 10.2917C7.58268 11.1891 8.31022 11.9167 9.20768 11.9167Z" fill="#EB7509"/>
<path d="M12.9885 2.16669C7.00852 2.16669 2.16602 7.02002 2.16602 13C2.16602 18.98 7.00852 23.8334 12.9885 23.8334C18.9793 23.8334 23.8327 18.98 23.8327 13C23.8327 7.02002 18.9793 2.16669 12.9885 2.16669ZM12.9993 21.6667C8.21102 21.6667 4.33268 17.7884 4.33268 13C4.33268 8.21169 8.21102 4.33335 12.9993 4.33335C17.7877 4.33335 21.666 8.21169 21.666 13C21.666 17.7884 17.7877 21.6667 12.9993 21.6667ZM12.9993 17.3334C12.2085 17.3334 11.5043 17.1384 10.876 16.77C10.746 16.9217 9.94435 17.8317 9.78185 18.0159C10.7135 18.6117 11.8077 18.9584 12.9993 18.9584C14.2018 18.9584 15.296 18.6009 16.2277 18.005C15.1768 16.8242 16.2168 17.9834 15.1335 16.7592C14.4943 17.1384 13.7902 17.3334 12.9993 17.3334Z" fill="#EB7509"/>
<path d="M12.9885 2.16669C7.00852 2.16669 2.16602 7.02002 2.16602 13C2.16602 18.98 7.00852 23.8334 12.9885 23.8334C18.9793 23.8334 23.8327 18.98 23.8327 13C23.8327 7.02002 18.9793 2.16669 12.9885 2.16669ZM12.9993 21.6667C8.21102 21.6667 4.33268 17.7884 4.33268 13C4.33268 8.21169 8.21102 4.33335 12.9993 4.33335C17.7877 4.33335 21.666 8.21169 21.666 13C21.666 17.7884 17.7877 21.6667 12.9993 21.6667ZM12.9993 17.3334C12.2085 17.3334 11.5043 17.1384 10.876 16.77C10.746 16.9217 9.94435 17.8317 9.78185 18.0159C10.7135 18.6117 11.8077 18.9584 12.9993 18.9584C14.2018 18.9584 15.296 18.6009 16.2277 18.005C15.1768 16.8242 16.2168 17.9834 15.1335 16.7592C14.4943 17.1384 13.7902 17.3334 12.9993 17.3334Z" fill="#EB7509"/>
</svg>
