<svg width="162" height="130" viewBox="0 0 162 130" fill="none" xmlns="http://www.w3.org/2000/svg">
<ellipse cx="75.151" cy="64.5507" rx="50.0421" ry="50.3925" fill="white"/>
<path fill-rule="evenodd" clip-rule="evenodd" d="M49.0023 92.598C49.5493 93.5581 49.2196 94.7827 48.2659 95.3333L3.35314 121.259C2.39943 121.809 1.18283 121.477 0.635789 120.517C0.0887454 119.557 0.418417 118.332 1.37213 117.782L46.2849 91.8563C47.2386 91.3058 48.4552 91.6379 49.0023 92.598Z" fill="#333333"/>
<path fill-rule="evenodd" clip-rule="evenodd" d="M161.372 11.619C161.912 12.5833 161.573 13.8054 160.615 14.3485L104.074 46.4122C103.116 46.9554 101.902 46.614 101.362 45.6497C100.822 44.6854 101.161 43.4634 102.119 42.9202L158.66 10.8565C159.618 10.3133 160.832 10.6547 161.372 11.619Z" fill="#333333"/>
<path fill-rule="evenodd" clip-rule="evenodd" d="M19.6793 93.1799C20.2335 94.1358 19.9131 95.3629 18.9636 95.9207L3.366 105.083C2.41646 105.641 1.19739 105.318 0.643145 104.362C0.0888928 103.406 0.409338 102.179 1.35888 101.621L16.9564 92.4589C17.906 91.9012 19.125 92.2239 19.6793 93.1799Z" fill="#333333"/>
<path fill-rule="evenodd" clip-rule="evenodd" d="M149.009 34.934C149.564 35.89 149.243 37.1171 148.294 37.6748L132.696 46.8371C131.747 47.3949 130.527 47.0721 129.973 46.1162C129.419 45.1603 129.739 43.9331 130.689 43.3754L146.287 34.2131C147.236 33.6553 148.455 33.9781 149.009 34.934Z" fill="#333333"/>
<path d="M62.4863 73.4156L52.212 43.6188C51.8244 42.371 51.8432 39.5852 55.0198 38.4234C58.1963 37.2616 59.9059 39.5027 60.3637 40.7685L64.9802 54.1569C65.0453 53.0489 65.734 50.6374 67.9686 49.8561C70.7618 48.8794 72.6858 50.5688 73.3892 52.2381C73.5986 52.7352 73.9005 53.5654 74.2251 54.4998C74.1654 53.0297 74.6054 49.8939 76.8427 49.1116C79.6392 48.1338 81.6805 49.9781 82.2697 51.687L83.0358 53.9086C82.9672 52.7835 83.4913 50.3019 86.1363 49.3771C88.7813 48.4522 90.5573 50.3424 91.1146 51.403L96.9295 68.267C98.4992 72.6339 99.1467 82.7371 89.1796 88.2141C86.4105 89.693 79.3622 91.9021 73.3214 88.907C67.2807 85.9118 55.8309 80.2965 50.8612 77.8632C49.4631 77.2667 46.7544 75.6602 47.1037 74.0058C47.5405 71.9379 50.4893 69.3746 53.353 69.714C55.644 69.9854 60.3965 72.2948 62.4863 73.4156Z" fill="white"/>
<path d="M66.9447 59.8542L64.9802 54.1569M64.9802 54.1569L60.3637 40.7685C59.9059 39.5027 58.1963 37.2616 55.0198 38.4234C51.8432 39.5852 51.8244 42.371 52.212 43.6188L62.4863 73.4156C60.3965 72.2948 55.644 69.9854 53.353 69.714C50.4893 69.3746 47.5405 71.9379 47.1037 74.0058C46.7544 75.6602 49.4631 77.2667 50.8612 77.8632C55.8309 80.2965 67.2807 85.9118 73.3214 88.907C79.3622 91.9021 86.4105 89.693 89.1796 88.2141C99.1467 82.7371 98.4992 72.6339 96.9295 68.267L91.1146 51.403C90.5573 50.3424 88.7813 48.4522 86.1363 49.3771C83.4913 50.3019 82.9672 52.7835 83.0358 53.9086M64.9802 54.1569C65.0453 53.0489 65.734 50.6374 67.9686 49.8561C70.7618 48.8794 72.6858 50.5688 73.3892 52.2381C73.5986 52.7352 73.9005 53.5654 74.2251 54.4998M74.2251 54.4998C74.7727 56.076 75.3849 57.9484 75.7269 59.0179L74.2251 54.4998ZM74.2251 54.4998C74.1654 53.0297 74.6054 49.8939 76.8427 49.1116C79.6392 48.1338 81.6805 49.9781 82.2697 51.687C82.4456 52.1971 82.7255 53.0087 83.0358 53.9086M83.0358 53.9086C83.5571 55.4205 84.1643 57.1816 84.5091 58.1816L83.0358 53.9086Z" stroke="#333333" stroke-width="4" stroke-linecap="round" stroke-linejoin="round"/>
</svg>
