<svg width="57" height="46" viewBox="0 0 57 46" fill="none" xmlns="http://www.w3.org/2000/svg">
<path d="M40.2725 35.6943C40.2694 36.1459 40.0864 36.5781 39.7631 36.8974C39.4398 37.2168 39.0021 37.3975 38.5449 37.4006H31.5793C31.1219 37.398 30.6839 37.2174 30.3605 36.898C30.0371 36.5785 29.8542 36.146 29.8516 35.6943C29.8547 35.2426 30.0377 34.8104 30.3611 34.4911C30.6844 34.1717 31.122 33.991 31.5793 33.9879H38.5449C39.0018 33.992 39.4389 34.1731 39.762 34.4922C40.0851 34.8113 40.2684 35.243 40.2725 35.6943ZM15.9754 35.6943C15.9729 36.146 15.79 36.5785 15.4666 36.898C15.1431 37.2174 14.7052 37.398 14.2478 37.4006H7.2822C6.82479 37.398 6.38685 37.2174 6.06341 36.898C5.73997 36.5785 5.55712 36.146 5.55455 35.6943C5.55763 35.2426 5.74064 34.8104 6.06397 34.4911C6.38731 34.1717 6.82495 33.991 7.2822 33.9879H14.2478C14.7047 33.9915 15.1418 34.1725 15.4647 34.4917C15.7877 34.811 15.9704 35.243 15.9735 35.6943H15.9754ZM12.3631 19.8585H34.7519L37.4985 26.7652C37.4553 26.7652 37.4121 26.7574 37.363 26.7574H9.61453L12.3631 19.8585ZM47.0732 25.1054C46.9596 24.4319 46.5802 23.8304 46.0183 23.4327C45.4563 23.035 44.7576 22.8737 44.0753 22.9841L44.091 22.9822L39.8053 23.6725C39.7424 23.6842 39.6807 23.701 39.6207 23.7229L39.6305 23.719L36.8702 16.7813H10.2369L7.47656 23.719C7.42082 23.7 7.36373 23.6851 7.30576 23.6744L3.01607 22.9822C2.33815 22.8771 1.64555 23.0393 1.08766 23.434C0.529768 23.8286 0.151307 24.4241 0.033909 25.0918L0.0319458 25.1073C-0.0750366 25.777 0.0890419 26.4613 0.488725 27.0124C0.888408 27.5635 1.4916 27.9372 2.16795 28.0527L2.18366 28.0546L4.67894 28.4599C3.09489 29.9616 2.17727 32.0216 2.12673 34.1896V46H10.765V41.5403H35.1661V46H43.8044V39.7022C43.8397 39.5548 43.8594 39.3861 43.8594 39.2116V34.1973C43.8116 32.1072 42.9602 30.1134 41.478 28.6208L41.4799 28.6227L44.947 28.0604C45.6285 27.9478 46.2369 27.5729 46.6388 27.0178C47.0407 26.4627 47.2033 25.7729 47.0909 25.0996L47.0928 25.1151L47.0732 25.1054Z" fill="#FC4120"/>
<ellipse cx="17.1381" cy="14.6456" rx="1.13811" ry="1.12405" fill="#FC4120"/>
<ellipse cx="20.78" cy="11.4983" rx="2.0486" ry="2.0233" fill="#FC4120"/>
<path d="M44 20C42.096 20 40.368 19.2083 39.2 17.8625C38.032 19.2083 36.304 20 34.4 20C31.264 20 28.656 17.7675 28.112 14.8383C26.9037 14.3759 25.8646 13.5632 25.1309 12.5066C24.3972 11.4499 24.003 10.1987 24 8.91667C24 7.23696 24.6743 5.62605 25.8745 4.43832C27.0747 3.25059 28.7026 2.58333 30.4 2.58333C30.816 2.58333 31.2 2.63083 31.632 2.69417C32.8 1.64917 34.32 1 36 1C37.904 1 39.632 1.79167 40.8 3.1375C41.968 1.79167 43.696 1 45.6 1C48.736 1 51.344 3.2325 51.888 6.16167C53.0963 6.62409 54.1354 7.43682 54.8691 8.49344C55.6028 9.55005 55.997 10.8013 56 12.0833C56 13.763 55.3257 15.3739 54.1255 16.5617C52.9253 17.7494 51.2974 18.4167 49.6 18.4167L48.368 18.3058C47.2 19.3508 45.68 20 44 20Z" fill="#FC4120" stroke="white" stroke-width="2"/>
</svg>
