<svg width="52" height="42" viewBox="0 0 52 42" fill="none" xmlns="http://www.w3.org/2000/svg">
<path d="M0 8C0 6.89543 0.895431 6 2 6H50C51.1046 6 52 6.89543 52 8V12H0V8Z" fill="#FC4D2E"/>
<path d="M1.92578 13.3636H50.0739V40C50.0739 41.1046 49.1785 42 48.0739 42H3.92578C2.82121 42 1.92578 41.1046 1.92578 40V13.3636Z" fill="#FC4D2E"/>
<path d="M4.81494 2C4.81494 0.895432 5.71037 0 6.81494 0H9.55568C10.6603 0 11.5557 0.895431 11.5557 2V4.77273H4.81494V2Z" fill="#FC4D2E"/>
<path d="M39.4814 2C39.4814 0.895432 40.3769 0 41.4814 0H44.2222C45.3268 0 46.2222 0.895431 46.2222 2V4.77273H39.4814V2Z" fill="#FC4D2E"/>
<path d="M30.7498 17.2635C30.8784 17.3312 30.9778 17.4365 31.0319 17.5622C31.0861 17.6879 31.0917 17.8265 31.0479 17.9555L28.6831 24.9376H33.0464C33.1747 24.9375 33.3001 24.9716 33.4073 25.0356C33.5144 25.0996 33.5986 25.1907 33.6494 25.2977C33.7003 25.4046 33.7155 25.5228 33.6933 25.6375C33.6711 25.7523 33.6124 25.8586 33.5244 25.9434L23.0197 36.0849C22.9181 36.1831 22.7828 36.2471 22.636 36.2665C22.4892 36.2859 22.3395 36.2596 22.2112 36.1918C22.083 36.124 21.9838 36.0187 21.9299 35.8931C21.8759 35.7675 21.8703 35.629 21.9141 35.5002L24.279 28.5169H19.9156C19.7874 28.517 19.6619 28.4829 19.5548 28.4189C19.4476 28.3549 19.3634 28.2638 19.3126 28.1569C19.2617 28.0499 19.2465 27.9317 19.2687 27.817C19.2909 27.7022 19.3497 27.5959 19.4376 27.5111L29.9423 17.3697C30.0438 17.2716 30.1789 17.2076 30.3255 17.1881C30.4721 17.1686 30.6217 17.1948 30.7498 17.2623V17.2635ZM21.4348 27.3238H25.1679C25.2707 27.3238 25.372 27.3457 25.4637 27.3877C25.5555 27.4298 25.6351 27.4908 25.6961 27.5659C25.7572 27.641 25.798 27.728 25.8152 27.8201C25.8325 27.9121 25.8258 28.0065 25.7956 28.0958L23.9993 33.3968L31.5259 26.1307H27.7941C27.6913 26.1307 27.59 26.1088 27.4983 26.0668C27.4066 26.0247 27.327 25.9637 27.2659 25.8886C27.2049 25.8135 27.164 25.7265 27.1468 25.6345C27.1295 25.5424 27.1362 25.448 27.1664 25.3588L28.9627 20.0578L21.4348 27.3238Z" fill="white"/>
<path fill-rule="evenodd" clip-rule="evenodd" d="M40.7664 30.8093C40.7664 31.2296 41.1124 31.5703 41.5392 31.5703C41.9661 31.5703 42.3121 31.2296 42.3121 30.8093V27.4609H45.7128C46.1397 27.4609 46.4857 27.1202 46.4857 26.6999C46.4857 26.2796 46.1397 25.9389 45.7128 25.9389H42.3121V22.5906C42.3121 22.1703 41.9661 21.8296 41.5392 21.8296C41.1124 21.8296 40.7664 22.1703 40.7664 22.5906V25.9389H37.3657C36.9388 25.9389 36.5928 26.2796 36.5928 26.6999C36.5928 27.1202 36.9388 27.4609 37.3657 27.4609H40.7664V30.8093Z" fill="white"/>
<path fill-rule="evenodd" clip-rule="evenodd" d="M6 28C6 27.4477 6.24873 27 6.55556 27H15.4444C15.7513 27 16 27.4477 16 28C16 28.5523 15.7513 29 15.4444 29H6.55556C6.24873 29 6 28.5523 6 28Z" fill="white"/>
</svg>
