<svg width="250" height="45" viewBox="0 0 250 45" fill="none" xmlns="http://www.w3.org/2000/svg">
<g clip-path="url(#clip0_601_4)">
<path fill-rule="evenodd" clip-rule="evenodd" d="M35.5973 1H14.0775V4.52098H23.0441V7.0737H14.0775L6.90426 12.5958V35.1095L14.0775 44H17.8991H37.4354L41.1565 42.3275H48.1056L51.6026 36.6499V40.391H57.2067L59 38.6305V15.8321L57.2067 13.9396H51.6026V17.5926L48.1056 12.0898H41.1565L37.4354 7.0737H26.6307V4.52098H35.5973V1ZM3.58663 22.3019H6.90425V25.8229H3.58663V36.914H0V11.2108H3.58663V22.3019Z" fill="#FC4120"/>
<path d="M21.0613 34.9803C19.8842 35.1785 18.7809 35.1124 17.7516 34.7821C16.7329 34.4499 15.8776 33.8973 15.1857 33.1243C14.5045 32.3495 14.0692 31.4208 13.88 30.338C13.6908 29.2553 13.7859 28.2372 14.1651 27.2838C14.555 26.3286 15.1738 25.5278 16.0215 24.8813C16.8798 24.2331 17.8976 23.8098 19.0747 23.6116C20.2519 23.4133 21.3498 23.4803 22.3686 23.8124C23.3979 24.1428 24.2532 24.6954 24.9345 25.4702C25.6263 26.2432 26.0668 27.1711 26.256 28.2538C26.4452 29.3365 26.3449 30.3555 25.9551 31.3107C25.5758 32.2641 24.957 33.0649 24.0987 33.7132C23.2509 34.3596 22.2385 34.782 21.0613 34.9803ZM20.6138 32.4192C21.1759 32.3245 21.6622 32.1087 22.0727 31.7716C22.4832 31.4345 22.7801 31.0094 22.9634 30.4963C23.1448 29.9727 23.1819 29.4038 23.0745 28.7896C22.9672 28.1754 22.74 27.6563 22.3931 27.2325C22.0442 26.7982 21.6191 26.4894 21.1176 26.3059C20.6161 26.1224 20.0843 26.078 19.5223 26.1727C18.9602 26.2673 18.4739 26.4832 18.0634 26.8202C17.6528 27.1573 17.3568 27.5876 17.1754 28.1112C16.9921 28.6243 16.9542 29.188 17.0615 29.8022C17.1689 30.4165 17.3969 30.9407 17.7457 31.375C18.0927 31.7988 18.517 32.1025 19.0185 32.2859C19.52 32.4694 20.0517 32.5138 20.6138 32.4192Z" fill="white"/>
<path d="M30.5178 24.3691L30.938 26.7741L35.8534 25.9463L36.2709 28.3356L31.3555 29.1634L32.0105 32.9113L28.8608 33.4417L26.9506 22.5103L35.6838 21.0395L36.1013 23.4288L30.5178 24.3691Z" fill="white"/>
<path d="M40.724 22.6503L41.1443 25.0552L46.0597 24.2275L46.4772 26.6167L41.5618 27.4445L42.2167 31.1925L39.067 31.7229L37.1568 20.7915L45.89 19.3207L46.3075 21.71L40.724 22.6503Z" fill="white"/>
<rect x="74" width="1" height="45" fill="white"/>
<path d="M98.36 31.2C97.2933 31.2 96.3 31.0267 95.38 30.68C94.4733 30.32 93.68 29.82 93 29.18C92.3333 28.5267 91.8133 27.76 91.44 26.88C91.0667 26 90.88 25.04 90.88 24C90.88 22.96 91.0667 22 91.44 21.12C91.8133 20.24 92.34 19.48 93.02 18.84C93.7 18.1867 94.4933 17.6867 95.4 17.34C96.3067 16.98 97.3 16.8 98.38 16.8C99.5267 16.8 100.573 17 101.52 17.4C102.467 17.7867 103.267 18.3667 103.92 19.14L102.24 20.72C101.733 20.1733 101.167 19.7667 100.54 19.5C99.9133 19.22 99.2333 19.08 98.5 19.08C97.7667 19.08 97.0933 19.2 96.48 19.44C95.88 19.68 95.3533 20.02 94.9 20.46C94.46 20.9 94.1133 21.42 93.86 22.02C93.62 22.62 93.5 23.28 93.5 24C93.5 24.72 93.62 25.38 93.86 25.98C94.1133 26.58 94.46 27.1 94.9 27.54C95.3533 27.98 95.88 28.32 96.48 28.56C97.0933 28.8 97.7667 28.92 98.5 28.92C99.2333 28.92 99.9133 28.7867 100.54 28.52C101.167 28.24 101.733 27.82 102.24 27.26L103.92 28.86C103.267 29.62 102.467 30.2 101.52 30.6C100.573 31 99.52 31.2 98.36 31.2ZM116.451 17H119.051V31H116.451V17ZM109.211 31H106.611V17H109.211V31ZM116.651 25H108.991V22.78H116.651V25ZM125.403 22.82H132.363V24.96H125.403V22.82ZM125.603 28.82H133.503V31H123.003V17H133.223V19.18H125.603V28.82ZM143.081 31.2C142.014 31.2 141.021 31.0267 140.101 30.68C139.194 30.32 138.401 29.82 137.721 29.18C137.054 28.5267 136.534 27.76 136.161 26.88C135.788 26 135.601 25.04 135.601 24C135.601 22.96 135.788 22 136.161 21.12C136.534 20.24 137.061 19.48 137.741 18.84C138.421 18.1867 139.214 17.6867 140.121 17.34C141.028 16.98 142.021 16.8 143.101 16.8C144.248 16.8 145.294 17 146.241 17.4C147.188 17.7867 147.988 18.3667 148.641 19.14L146.961 20.72C146.454 20.1733 145.888 19.7667 145.261 19.5C144.634 19.22 143.954 19.08 143.221 19.08C142.488 19.08 141.814 19.2 141.201 19.44C140.601 19.68 140.074 20.02 139.621 20.46C139.181 20.9 138.834 21.42 138.581 22.02C138.341 22.62 138.221 23.28 138.221 24C138.221 24.72 138.341 25.38 138.581 25.98C138.834 26.58 139.181 27.1 139.621 27.54C140.074 27.98 140.601 28.32 141.201 28.56C141.814 28.8 142.488 28.92 143.221 28.92C143.954 28.92 144.634 28.7867 145.261 28.52C145.888 28.24 146.454 27.82 146.961 27.26L148.641 28.86C147.988 29.62 147.188 30.2 146.241 30.6C145.294 31 144.241 31.2 143.081 31.2ZM153.652 27.7L153.512 24.62L160.852 17H163.772L157.672 23.48L156.232 25.06L153.652 27.7ZM151.332 31V17H153.932V31H151.332ZM161.092 31L155.732 24.62L157.452 22.72L164.132 31H161.092ZM164.62 26.48V24.4H170.12V26.48H164.62ZM216.76 31.14C216.306 31.14 215.92 30.9867 215.6 30.68C215.28 30.36 215.12 29.96 215.12 29.48C215.12 28.9733 215.28 28.5733 215.6 28.28C215.92 27.9733 216.306 27.82 216.76 27.82C217.213 27.82 217.6 27.9733 217.92 28.28C218.24 28.5733 218.4 28.9733 218.4 29.48C218.4 29.96 218.24 30.36 217.92 30.68C217.6 30.9867 217.213 31.14 216.76 31.14ZM221.282 31V17H227.042C228.282 17 229.342 17.2 230.222 17.6C231.116 18 231.802 18.5733 232.282 19.32C232.762 20.0667 233.002 20.9533 233.002 21.98C233.002 23.0067 232.762 23.8933 232.282 24.64C231.802 25.3733 231.116 25.94 230.222 26.34C229.342 26.7267 228.282 26.92 227.042 26.92H222.722L223.882 25.74V31H221.282ZM230.442 31L226.902 25.92H229.682L233.242 31H230.442ZM223.882 26.02L222.722 24.78H226.922C228.069 24.78 228.929 24.5333 229.502 24.04C230.089 23.5467 230.382 22.86 230.382 21.98C230.382 21.0867 230.089 20.4 229.502 19.92C228.929 19.44 228.069 19.2 226.922 19.2H222.722L223.882 17.92V26.02ZM242.131 31.2C240.211 31.2 238.705 30.66 237.611 29.58C236.531 28.5 235.991 26.94 235.991 24.9V17H238.591V24.8C238.591 26.24 238.898 27.2867 239.511 27.94C240.138 28.5933 241.018 28.92 242.151 28.92C243.285 28.92 244.158 28.5933 244.771 27.94C245.385 27.2867 245.691 26.24 245.691 24.8V17H248.251V24.9C248.251 26.94 247.705 28.5 246.611 29.58C245.531 30.66 244.038 31.2 242.131 31.2Z" fill="#333333"/>
<path d="M179.855 31.2C178.762 31.2 177.755 31.02 176.835 30.66C175.915 30.3 175.115 29.8 174.435 29.16C173.755 28.5067 173.228 27.7467 172.855 26.88C172.482 26 172.295 25.04 172.295 24C172.295 22.96 172.482 22.0067 172.855 21.14C173.228 20.26 173.755 19.5 174.435 18.86C175.115 18.2067 175.915 17.7 176.835 17.34C177.755 16.98 178.755 16.8 179.835 16.8C180.928 16.8 181.928 16.98 182.835 17.34C183.755 17.7 184.555 18.2067 185.235 18.86C185.915 19.5 186.442 20.26 186.815 21.14C187.188 22.0067 187.375 22.96 187.375 24C187.375 25.04 187.188 26 186.815 26.88C186.442 27.76 185.915 28.52 185.235 29.16C184.555 29.8 183.755 30.3 182.835 30.66C181.928 31.02 180.935 31.2 179.855 31.2ZM179.835 28.92C180.542 28.92 181.195 28.8 181.795 28.56C182.395 28.32 182.915 27.98 183.355 27.54C183.795 27.0867 184.135 26.5667 184.375 25.98C184.628 25.38 184.755 24.72 184.755 24C184.755 23.28 184.628 22.6267 184.375 22.04C184.135 21.44 183.795 20.92 183.355 20.48C182.915 20.0267 182.395 19.68 181.795 19.44C181.195 19.2 180.542 19.08 179.835 19.08C179.128 19.08 178.475 19.2 177.875 19.44C177.288 19.68 176.768 20.0267 176.315 20.48C175.875 20.92 175.528 21.44 175.275 22.04C175.035 22.6267 174.915 23.28 174.915 24C174.915 24.7067 175.035 25.36 175.275 25.96C175.528 26.56 175.875 27.0867 176.315 27.54C176.755 27.98 177.275 28.32 177.875 28.56C178.475 28.8 179.128 28.92 179.835 28.92ZM192.711 23.44H199.691V25.64H192.711V23.44ZM192.931 31H190.331V17H200.551V19.18H192.931V31ZM205.645 23.44H212.625V25.64H205.645V23.44ZM205.865 31H203.265V17H213.485V19.18H205.865V31Z" fill="#FC4120"/>
</g>
<defs>
<clipPath id="clip0_601_4">
<rect width="250" height="45" fill="white"/>
</clipPath>
</defs>
</svg>
