<svg width="17" height="18" viewBox="0 0 17 18" fill="none" xmlns="http://www.w3.org/2000/svg">
<g clip-path="url(#clip0_601_20)">
<path d="M8.5 17.5C8.5 17.5 14.875 11.4586 14.875 6.875C14.875 5.18425 14.2034 3.56274 13.0078 2.36719C11.8123 1.17165 10.1908 0.5 8.5 0.5C6.80925 0.5 5.18774 1.17165 3.99219 2.36719C2.79665 3.56274 2.125 5.18425 2.125 6.875C2.125 11.4586 8.5 17.5 8.5 17.5ZM8.5 10.0625C7.65462 10.0625 6.84387 9.72668 6.2461 9.1289C5.64832 8.53113 5.3125 7.72038 5.3125 6.875C5.3125 6.02962 5.64832 5.21887 6.2461 4.6211C6.84387 4.02332 7.65462 3.6875 8.5 3.6875C9.34538 3.6875 10.1561 4.02332 10.7539 4.6211C11.3517 5.21887 11.6875 6.02962 11.6875 6.875C11.6875 7.72038 11.3517 8.53113 10.7539 9.1289C10.1561 9.72668 9.34538 10.0625 8.5 10.0625Z" fill="#FC4120"/>
</g>
<defs>
<clipPath id="clip0_601_20">
<rect width="17" height="17" fill="white" transform="translate(0 0.5)"/>
</clipPath>
</defs>
</svg>
