<svg width="26" height="26" viewBox="0 0 26 26" fill="none" xmlns="http://www.w3.org/2000/svg">
<path d="M16.791 11.9167C17.6885 11.9167 18.416 11.1891 18.416 10.2917C18.416 9.39422 17.6885 8.66669 16.791 8.66669C15.8936 8.66669 15.166 9.39422 15.166 10.2917C15.166 11.1891 15.8936 11.9167 16.791 11.9167Z" fill="#4DB45E"/>
<path d="M9.20768 11.9167C10.1051 11.9167 10.8327 11.1891 10.8327 10.2917C10.8327 9.39422 10.1051 8.66669 9.20768 8.66669C8.31022 8.66669 7.58268 9.39422 7.58268 10.2917C7.58268 11.1891 8.31022 11.9167 9.20768 11.9167Z" fill="#4DB45E"/>
<path d="M12.9993 19.5C15.4693 19.5 17.571 17.7017 18.416 15.1667H7.58268C8.42768 17.7017 10.5293 19.5 12.9993 19.5Z" fill="#4DB45E"/>
<path d="M12.9885 2.16669C7.00852 2.16669 2.16602 7.02002 2.16602 13C2.16602 18.98 7.00852 23.8334 12.9885 23.8334C18.9793 23.8334 23.8327 18.98 23.8327 13C23.8327 7.02002 18.9793 2.16669 12.9885 2.16669ZM12.9993 21.6667C8.21102 21.6667 4.33268 17.7884 4.33268 13C4.33268 8.21169 8.21102 4.33335 12.9993 4.33335C17.7877 4.33335 21.666 8.21169 21.666 13C21.666 17.7884 17.7877 21.6667 12.9993 21.6667Z" fill="#4DB45E"/>
</svg>
