<svg width="16" height="15" viewBox="0 0 16 15" fill="none" xmlns="http://www.w3.org/2000/svg">
<path d="M10.4358 10.5825L11.6958 9.32252C11.8655 9.15492 12.0802 9.04019 12.3139 8.99226C12.5475 8.94433 12.7901 8.96527 13.012 9.05252L14.5477 9.66565C14.772 9.7567 14.9643 9.91213 15.1005 10.1123C15.2366 10.3125 15.3105 10.5486 15.3127 10.7906V13.6031C15.3114 13.7678 15.2767 13.9306 15.2109 14.0815C15.145 14.2325 15.0493 14.3685 14.9295 14.4815C14.8097 14.5945 14.6682 14.6821 14.5137 14.739C14.3591 14.7959 14.1946 14.8209 14.0302 14.8125C3.26954 14.1431 1.09829 5.03065 0.687667 1.54315C0.668605 1.37189 0.686021 1.19853 0.738769 1.03448C0.791517 0.870438 0.8784 0.719419 0.993705 0.591362C1.10901 0.463305 1.25012 0.361113 1.40776 0.291509C1.56539 0.221905 1.73598 0.186465 1.90829 0.187523H4.62517C4.86761 0.188241 5.10429 0.261473 5.30478 0.397802C5.50526 0.534131 5.66037 0.72732 5.75017 0.952523L6.36329 2.48815C6.45343 2.70925 6.47643 2.95201 6.42941 3.1861C6.38239 3.4202 6.26744 3.63525 6.09892 3.8044L4.83892 5.0644C4.83892 5.0644 5.56454 9.97502 10.4358 10.5825Z" fill="#FC4120"/>
</svg>
