<svg width="16" height="16" viewBox="0 0 16 16" fill="none" xmlns="http://www.w3.org/2000/svg">
<circle cx="8" cy="8" r="8" fill="#FC4120"/>
<path d="M6 4.78528C6.11578 4.67985 6.24242 4.57987 6.37992 4.48534C6.51741 4.39082 6.66757 4.3072 6.83039 4.23449C6.99322 4.16178 7.1687 4.10543 7.35685 4.06544C7.54862 4.02181 7.75486 4 7.97558 4C8.26866 4 8.53822 4.04181 8.78426 4.12543C9.03392 4.20904 9.2474 4.32902 9.42469 4.48534C9.60561 4.64167 9.74672 4.83072 9.84803 5.05249C9.94934 5.27062 10 5.51602 10 5.78868C10 6.06498 9.95839 6.30493 9.87517 6.50852C9.79557 6.70847 9.69426 6.88298 9.57123 7.03204C9.44821 7.1811 9.31253 7.31197 9.16418 7.42468C9.01945 7.53374 8.88195 7.63736 8.7517 7.73551C8.62506 7.83367 8.5147 7.93183 8.42062 8.02999C8.33017 8.12452 8.27589 8.23177 8.2578 8.35174L8.15468 9.17519H7.43284L7.35685 8.27539C7.33876 8.10816 7.36771 7.96274 7.44369 7.83913C7.51967 7.71552 7.61737 7.601 7.73677 7.49557C7.85979 7.3865 7.99548 7.28107 8.14383 7.17928C8.29218 7.07748 8.42967 6.96478 8.55631 6.84117C8.68295 6.71393 8.78969 6.57214 8.87653 6.41581C8.96337 6.25585 9.00678 6.0668 9.00678 5.84867C9.00678 5.69961 8.97784 5.5651 8.91995 5.44513C8.86205 5.32515 8.78245 5.22336 8.68114 5.13974C8.57983 5.05249 8.46043 4.98705 8.32293 4.94342C8.18544 4.89616 8.0389 4.87253 7.88331 4.87253C7.66621 4.87253 7.48168 4.8998 7.32972 4.95433C7.17775 5.00523 7.04749 5.06158 6.93894 5.12338C6.83401 5.18518 6.74717 5.24335 6.67843 5.29789C6.60968 5.34878 6.55179 5.37423 6.50475 5.37423C6.39982 5.37423 6.32384 5.32879 6.2768 5.2379L6 4.78528ZM7.05292 11.2802C7.05292 11.182 7.07101 11.0893 7.10719 11.002C7.14337 10.9148 7.19222 10.8384 7.25373 10.773C7.31886 10.7076 7.39484 10.6567 7.48168 10.6203C7.56852 10.5803 7.6626 10.5603 7.76391 10.5603C7.8616 10.5603 7.95387 10.5803 8.04071 10.6203C8.12754 10.6567 8.20353 10.7076 8.26866 10.773C8.33379 10.8384 8.38444 10.9148 8.42062 11.002C8.46043 11.0893 8.48033 11.182 8.48033 11.2802C8.48033 11.382 8.46043 11.4765 8.42062 11.5637C8.38444 11.651 8.33379 11.7273 8.26866 11.7928C8.20353 11.8582 8.12754 11.9091 8.04071 11.9455C7.95387 11.9818 7.8616 12 7.76391 12C7.6626 12 7.56852 11.9818 7.48168 11.9455C7.39484 11.9091 7.31886 11.8582 7.25373 11.7928C7.19222 11.7273 7.14337 11.651 7.10719 11.5637C7.07101 11.4765 7.05292 11.382 7.05292 11.2802Z" fill="#F1F1F1"/>
</svg>
