<svg width="28" height="29" viewBox="0 0 28 29" fill="none" xmlns="http://www.w3.org/2000/svg">
<path d="M14.5 10C14.5 9.72386 14.2761 9.5 14 9.5C13.7239 9.5 13.5 9.72386 13.5 10H14.5ZM13.5 15.5C13.5 15.7761 13.7239 16 14 16C14.2761 16 14.5 15.7761 14.5 15.5H13.5ZM23.5 14.5C23.5 19.7467 19.2467 24 14 24V25C19.799 25 24.5 20.299 24.5 14.5H23.5ZM14 24C8.75329 24 4.5 19.7467 4.5 14.5H3.5C3.5 20.299 8.20101 25 14 25V24ZM4.5 14.5C4.5 9.25329 8.75329 5 14 5V4C8.20101 4 3.5 8.70101 3.5 14.5H4.5ZM14 5C19.2467 5 23.5 9.25329 23.5 14.5H24.5C24.5 8.70101 19.799 4 14 4V5ZM13.5 10V15.5H14.5V10H13.5Z" fill="#606060"/>
<circle cx="14" cy="18.5" r="1" fill="#606060"/>
</svg>
