<svg width="28" height="28" viewBox="0 0 28 28" fill="none" xmlns="http://www.w3.org/2000/svg">
<path d="M17.3536 11.3536C17.5488 11.1583 17.5488 10.8417 17.3536 10.6464C17.1583 10.4512 16.8417 10.4512 16.6464 10.6464L17.3536 11.3536ZM10.6464 16.6464C10.4512 16.8417 10.4512 17.1583 10.6464 17.3536C10.8417 17.5488 11.1583 17.5488 11.3536 17.3536L10.6464 16.6464ZM11.3536 10.6464C11.1583 10.4512 10.8417 10.4512 10.6464 10.6464C10.4512 10.8417 10.4512 11.1583 10.6464 11.3536L11.3536 10.6464ZM16.6464 17.3536C16.8417 17.5488 17.1583 17.5488 17.3536 17.3536C17.5488 17.1583 17.5488 16.8417 17.3536 16.6464L16.6464 17.3536ZM23.5 14C23.5 19.2467 19.2467 23.5 14 23.5V24.5C19.799 24.5 24.5 19.799 24.5 14H23.5ZM14 23.5C8.75329 23.5 4.5 19.2467 4.5 14H3.5C3.5 19.799 8.20101 24.5 14 24.5V23.5ZM4.5 14C4.5 8.75329 8.75329 4.5 14 4.5V3.5C8.20101 3.5 3.5 8.20101 3.5 14H4.5ZM14 4.5C19.2467 4.5 23.5 8.75329 23.5 14H24.5C24.5 8.20101 19.799 3.5 14 3.5V4.5ZM16.6464 10.6464L10.6464 16.6464L11.3536 17.3536L17.3536 11.3536L16.6464 10.6464ZM10.6464 11.3536L16.6464 17.3536L17.3536 16.6464L11.3536 10.6464L10.6464 11.3536Z" fill="#FC2048"/>
</svg>
